<?xml version="1.0" standalone="no"?>
<!DOCTYPE svg PUBLIC "-//W3C//DTD SVG 1.1//EN" "http://www.w3.org/Graphics/SVG/1.1/DTD/svg11.dtd" >
<!--
2013-9-30: Created.
-->
<svg>
<metadata>
Created by iconfont
</metadata>
<defs>

<font id="iconfont" horiz-adv-x="1024" >
  <font-face
    font-family="iconfont"
    font-weight="500"
    font-stretch="normal"
    units-per-em="1024"
    ascent="896"
    descent="-128"
  />
    <missing-glyph />
    
    <glyph glyph-name="ruzhu" unicode="&#58912;" d="M846.998215-13.075551000000019L174.91424-13.075551000000019 174.91424 356.21212l278.307563 273.862321c4.869914 6.042623 27.929096 29.740348 62.065568 29.740348 21.723767 0 42.455951-10.159384 61.549821-29.309536l270.074042-274.804786 0-368.774995L846.998215-13.07452699999999zM217.757001 29.750837000000047l585.965595 0L803.722596 338.289935 546.148239 600.764905c-10.689457 10.691503-21.164019 16.303314-30.773887 16.303314-16.810874 0-29.740348-14.910595-29.740348-14.910595l-1.810229-1.823532L217.757001 338.3718 217.757001 29.750837000000047 217.757001 29.750837000000047zM958.500729 388.879124L590.155523 754.214786c0 0-71.765487 69.12638-161.373341-13.272281L62.074266 390.436596c0 0-4.653997-55.69037 54.006008-32.320103L449.470363 687.566854c0 0 55.515385 59.479673 114.219391 9.585309l349.382319-344.647481c0 0 55.426357-20.687158 45.385677 36.375465L958.500729 388.880147zM340.983533 738.177532L195.989231 738.177532 195.989231 518.100184l149.735279 143.43376L340.983533 738.177532zM535.80466 332.083583l46.979988 0 0-38.20002-46.979988 0L535.80466 332.083583 535.80466 332.083583zM535.80466 406.985504l0-38.198997 46.979988 0 0 38.198997L535.80466 406.985504zM438.868911 332.083583l46.765093 0 0-38.20002-46.765093 0L438.868911 332.083583 438.868911 332.083583zM438.868911 406.985504l0-38.198997 46.765093 0 0 38.198997L438.868911 406.985504zM535.80466 332.083583l46.979988 0 0-38.20002-46.979988 0L535.80466 332.083583 535.80466 332.083583zM535.80466 406.985504l0-38.198997 46.979988 0 0 38.198997L535.80466 406.985504zM438.868911 332.083583l46.765093 0 0-38.20002-46.765093 0L438.868911 332.083583 438.868911 332.083583zM438.868911 406.985504l0-38.198997 46.765093 0 0 38.198997L438.868911 406.985504zM438.868911 406.985504"  horiz-adv-x="1024" />

    
    <glyph glyph-name="qushi" unicode="&#58892;" d="M49.549312 69.161728l172.726272 0 0-217.606144L49.549312-148.444416 49.549312 69.161728 49.549312 69.161728zM312.95488 292.266752l177.03936 0 0-440.707072L312.95488-148.44032 312.95488 292.266752 312.95488 292.266752zM576.366592 207.346432l175.60576 0 0-355.7888-175.60576 0L576.366592 207.346432 576.366592 207.346432zM839.770112 423.252736l177.0496 0 0-571.693056-177.0496 0L839.770112 423.252736 839.770112 423.252736zM2.048 285.07008 412.274688 662.192896l235.42784-231.286784L870.002688 689.543936l-80.605184 84.79744 227.428352 0L1016.825856 554.23872l-79.517696 81.936384L647.696384 285.641472 409.767936 530.25664 59.129856 203.827968 2.048 285.07008z"  horiz-adv-x="1024" />

    
    <glyph glyph-name="wangzhan" unicode="&#59004;" d="M510.651794 748.034153c-0.121773 0-0.24457 0-0.385786 0-0.051165 0-0.105401 0-0.173962 0-0.174985 0-0.347924-0.034792-0.523933-0.034792C262.795776 747.440635 62.962495 547.237941 62.962495 300.344854c0-246.825548 199.832258-447.060989 446.606641-447.65553 0.176009 0 0.348947-0.034792 0.523933-0.034792 0.068562 0 0.122797 0 0.173962 0 0.141216 0 0.264013 0 0.385786 0 247.210311 0 447.689299 200.481034 447.689299 447.691345C958.342116 547.587911 757.863129 748.034153 510.651794 748.034153zM528.559653 480.12031c47.461965 1.293459 93.647867 7.553023 138.120754 18.396999 13.411451-52.779064 21.718651-113.602338 23.032576-180.26562L528.559653 318.251689 528.559653 480.12031zM528.559653 515.933981 528.559653 709.385924C576.842309 696.025639 625.740996 631.669912 656.922159 532.967936 615.562169 522.99991 572.647777 517.193671 528.559653 515.933981zM492.743936 709.806503 492.743936 515.933981c-44.453445 1.258667-87.717807 7.17133-129.392976 17.314341C394.777717 632.543815 444.146101 697.143089 492.743936 709.806503zM492.743936 480.15408 492.743936 318.251689 330.474179 318.251689c1.311879 66.768683 9.653871 127.660518 23.067368 180.475398C398.361335 487.779757 444.897208 481.413769 492.743936 480.15408zM294.432311 318.251689 99.23256 318.251689c3.952009 92.056626 38.246069 176.417989 93.158726 243.221464 39.872103-21.964244 82.175581-39.940664 126.489856-53.373605C304.417733 450.984736 295.743166 386.594217 294.432311 318.251689zM294.432311 282.436996c1.310855-68.307735 9.985422-132.698255 24.448832-189.81102-44.296879-13.468756-86.617753-31.444153-126.489856-53.40942-54.912657 66.803475-89.205695 151.166885-93.158726 243.221464L294.432311 282.438019zM330.474179 282.436996l162.269757 0 0-161.691589c-47.846728-1.25969-94.399997-7.66047-139.219785-18.643616C340.110653 154.878808 331.786057 215.736874 330.474179 282.436996zM492.743936 84.963459l0-194.081277c-48.63365 12.69616-98.035804 77.366042-129.445164 176.766936C404.991336 77.794176 448.273095 83.704792 492.743936 84.963459zM528.559653-108.697239l0 193.660698c44.104497-1.258667 87.017866-7.099698 128.396275-17.067724C625.791138-30.875826 576.862775-95.33593 528.559653-108.697239zM528.559653 120.745407 528.559653 282.436996l161.152307 0c-1.313925-66.593697-9.620102-127.346363-22.978341-180.090635C622.226962 113.18829 576.040037 119.485717 528.559653 120.745407zM725.75485 282.436996l196.317201 0c-3.949962-92.054579-38.22765-176.383196-93.14133-243.185648-40.199561 22.104437-82.857103 40.222073-127.553071 53.721529C715.803197 150.01708 724.441948 214.269453 725.75485 282.436996zM725.75485 318.251689c-1.311879 68.272943-9.968026 132.559085-24.413016 189.638081 44.663222 13.500479 87.315648 31.583323 127.485533 53.68776 54.963823-66.803475 89.274256-151.199631 93.244684-243.326864L725.75485 318.250666zM804.151361 588.929482c-35.624359-18.955724-73.238025-34.625612-112.515586-46.518476-20.935822 67.36527-50.332339 122.346489-85.079724 158.441569C682.804642 682.558929 750.884181 643.107405 804.151361 588.929482zM413.331281 700.502603c-34.573423-36.024471-63.830771-90.76112-84.692914-157.77642-38.893822 11.857049-76.177983 27.386744-111.485117 46.203298C270.071484 642.757434 337.644485 682.104581 413.331281 700.502603zM217.030453 11.899396c35.341926 18.85237 72.644507 34.380018 111.573121 46.238091 20.862143-67.081815 50.120514-121.889071 84.727707-157.950382C337.592296-81.38008 269.983479-41.998141 217.030453 11.899396zM606.537631-100.129096c34.802644 36.094056 64.198138 91.112114 85.148285 158.581762 39.297005-11.927657 76.92909-27.562752 112.569822-46.588061C750.988558-42.349135 682.855808-81.870244 606.537631-100.129096z"  horiz-adv-x="1024" />

    
    <glyph glyph-name="xiangqingjingyanliebiaoshuxing" unicode="&#59302;" d="M480 832C214.848 832 0 617.152 0 352S214.848-128 480-128 960 86.848 960 352 745.152 832 480 832zM288 128C270.336 128 256 142.336 256 160S270.336 192 288 192 320 177.664 320 160 305.664 128 288 128zM288 320C270.336 320 256 334.336 256 352S270.336 384 288 384 320 369.664 320 352 305.664 320 288 320zM288 512C270.336 512 256 526.336 256 544S270.336 576 288 576 320 561.664 320 544 305.664 512 288 512zM672 128l-256 0C398.336 128 384 142.336 384 160S398.336 192 416 192l256 0c17.664 0 32-14.336 32-32S689.664 128 672 128zM672 320l-256 0C398.336 320 384 334.336 384 352S398.336 384 416 384l256 0C689.664 384 704 369.664 704 352S689.664 320 672 320zM672 512l-256 0C398.336 512 384 526.336 384 544S398.336 576 416 576l256 0C689.664 576 704 561.664 704 544S689.664 512 672 512z"  horiz-adv-x="1024" />

    
    <glyph glyph-name="yunying" unicode="&#58896;" d="M357.64193 663.938243C357.64193 758.325888 277.923688 834.909672 179.468251 834.909672 81.149086 834.841718 1.362708 758.325888 1.362708 663.938243 1.362708 618.001564 20.304307 576.278011 51.033305 545.495 42.652669 511.78998 38.292013 476.725886 38.292013 440.574535 38.292013 278.029363 127.481056 135.394615 261.434957 55.4811L297.069693 195.873378C224.301246 254.44944 177.969276 342.245581 177.969276 440.506585 177.969276 458.378398 179.468251 475.910443 182.466202 492.898859 279.558934 494.529749 357.64193 570.433996 357.64193 663.938243L357.64193 663.938243 357.64193 663.938243 357.64193 663.938243 357.64193 663.938243ZM510.469297 759.413146C572.063563 759.413146 629.637849 743.376081 679.172175 715.311216 671.336621 696.080328 667.180371 675.218552 667.180371 653.405425 667.180371 558.949826 746.898613 482.433997 845.21778 482.433997 943.536947 482.433997 1023.39146 559.01778 1023.39146 653.405425 1023.39146 747.793069 943.536947 824.376853 845.21778 824.376853 822.188064 824.376853 800.112242 820.163726 780.012347 812.552915 703.49646 863.654073 610.764383 893.621641 510.469297 893.621641 442.606588 893.621641 378.082505 879.827046 319.758731 855.091911L401.180357 741.813146C435.384249 753.229363 472.177286 759.413146 510.469297 759.413146L510.469297 759.413146 510.469297 759.413146 510.469297 759.413146 510.469297 759.413146ZM842.424233 426.236314C837.109685 310.035539 766.862241 209.939787 665.681396 158.498859 636.246969 213.8811 576.219813 251.799249 506.994397 251.799249 408.538963 251.799249 328.820719 175.215462 328.820719 80.827817 328.820719-13.559828 408.538963-90.211564 506.994397-90.211564 580.784872-90.211564 644.286929-47.060984 671.132215 14.36913 852.780792 77.498088 982.510308 244.528203 982.510308 440.506585 982.510308 450.563726 982.101496 460.484962 981.420146 470.338245L842.424233 426.236314 842.424233 426.236314 842.424233 426.236314 842.424233 426.236314 842.424233 426.236314ZM357.64193 663.938243C357.64193 758.325888 277.923688 834.909672 179.468251 834.909672 81.149086 834.841718 1.362708 758.325888 1.362708 663.938243 1.362708 618.001564 20.304307 576.278011 51.033305 545.495 42.652669 511.78998 38.292013 476.725886 38.292013 440.574535 38.292013 278.029363 127.481056 135.394615 261.434957 55.4811L297.069693 195.873378C224.301246 254.44944 177.969276 342.245581 177.969276 440.506585 177.969276 458.378398 179.468251 475.910443 182.466202 492.898859 279.558934 494.529749 357.64193 570.433996 357.64193 663.938243L357.64193 663.938243 357.64193 663.938243 357.64193 663.938243 357.64193 663.938243ZM510.469297 759.413146C572.063563 759.413146 629.637849 743.376081 679.172175 715.311216 671.336621 696.080328 667.180371 675.218552 667.180371 653.405425 667.180371 558.949826 746.898613 482.433997 845.21778 482.433997 943.536947 482.433997 1023.39146 559.01778 1023.39146 653.405425 1023.39146 747.793069 943.536947 824.376853 845.21778 824.376853 822.188064 824.376853 800.112242 820.163726 780.012347 812.552915 703.49646 863.654073 610.764383 893.621641 510.469297 893.621641 442.606588 893.621641 378.082505 879.827046 319.758731 855.091911L401.180357 741.813146C435.384249 753.229363 472.177286 759.413146 510.469297 759.413146L510.469297 759.413146 510.469297 759.413146 510.469297 759.413146 510.469297 759.413146ZM842.424233 426.236314C837.109685 310.035539 766.862241 209.939787 665.681396 158.498859 636.246969 213.8811 576.219813 251.799249 506.994397 251.799249 408.538963 251.799249 328.820719 175.215462 328.820719 80.827817 328.820719-13.559828 408.538963-90.211564 506.994397-90.211564 580.784872-90.211564 644.286929-47.060984 671.132215 14.36913 852.780792 77.498088 982.510308 244.528203 982.510308 440.506585 982.510308 450.563726 982.101496 460.484962 981.420146 470.338245L842.424233 426.236314 842.424233 426.236314 842.424233 426.236314 842.424233 426.236314 842.424233 426.236314ZM357.64193 663.938243C357.64193 758.325888 277.923688 834.909672 179.468251 834.909672 81.149086 834.841718 1.362708 758.325888 1.362708 663.938243 1.362708 618.001564 20.304307 576.278011 51.033305 545.495 42.652669 511.78998 38.292013 476.725886 38.292013 440.574535 38.292013 278.029363 127.481056 135.394615 261.434957 55.4811L297.069693 195.873378C224.301246 254.44944 177.969276 342.245581 177.969276 440.506585 177.969276 458.378398 179.468251 475.910443 182.466202 492.898859 279.558934 494.529749 357.64193 570.433996 357.64193 663.938243L357.64193 663.938243 357.64193 663.938243 357.64193 663.938243 357.64193 663.938243ZM510.469297 759.413146C572.063563 759.413146 629.637849 743.376081 679.172175 715.311216 671.336621 696.080328 667.180371 675.218552 667.180371 653.405425 667.180371 558.949826 746.898613 482.433997 845.21778 482.433997 943.536947 482.433997 1023.39146 559.01778 1023.39146 653.405425 1023.39146 747.793069 943.536947 824.376853 845.21778 824.376853 822.188064 824.376853 800.112242 820.163726 780.012347 812.552915 703.49646 863.654073 610.764383 893.621641 510.469297 893.621641 442.606588 893.621641 378.082505 879.827046 319.758731 855.091911L401.180357 741.813146C435.384249 753.229363 472.177286 759.413146 510.469297 759.413146L510.469297 759.413146 510.469297 759.413146 510.469297 759.413146 510.469297 759.413146ZM842.424233 426.236314C837.109685 310.035539 766.862241 209.939787 665.681396 158.498859 636.246969 213.8811 576.219813 251.799249 506.994397 251.799249 408.538963 251.799249 328.820719 175.215462 328.820719 80.827817 328.820719-13.559828 408.538963-90.211564 506.994397-90.211564 580.784872-90.211564 644.286929-47.060984 671.132215 14.36913 852.780792 77.498088 982.510308 244.528203 982.510308 440.506585 982.510308 450.563726 982.101496 460.484962 981.420146 470.338245L842.424233 426.236314 842.424233 426.236314 842.424233 426.236314 842.424233 426.236314 842.424233 426.236314Z"  horiz-adv-x="1024" />

    
    <glyph glyph-name="ego-menu" unicode="&#58885;" d="M867.995 436.353h-711.99c-27.921 0-52.353-24.434-52.353-52.353s24.434-52.353 52.353-52.353h711.99c27.921 0 52.353 24.434 52.353 52.353s-24.434 52.353-52.353 52.353zM867.995 132.709h-711.99c-27.921 0-52.353-24.434-52.353-52.353s24.434-52.353 52.353-52.353h711.99c27.921 0 52.353 24.434 52.353 52.353s-24.434 52.353-52.353 52.353zM156.005 635.291h711.99c27.921 0 52.353 24.434 52.353 52.353s-24.434 52.353-52.353 52.353h-711.99c-27.921 0-52.353-24.434-52.353-52.353s24.434-52.353 52.353-52.353z"  horiz-adv-x="1024" />

    
    <glyph glyph-name="xiangqingye" unicode="&#58938;" d="M512 896C229.230405 896 0 666.769595 0 384s229.230405-512 512-512 512 229.230405 512 512S794.769595 896 512 896zM256 179.2c-14.138736 0-25.600639 11.460625-25.600639 25.599361s11.460625 25.599361 25.600639 25.599361c14.138736 0 25.599361-11.460625 25.599361-25.599361S270.138736 179.2 256 179.2zM256 358.400639c-14.138736 0-25.600639 11.460625-25.600639 25.599361s11.460625 25.599361 25.600639 25.599361c14.138736 0 25.599361-11.460625 25.599361-25.599361S270.138736 358.400639 256 358.400639zM256 537.6c-14.138736 0-25.600639 11.460625-25.600639 25.599361 0 14.138736 11.460625 25.600639 25.600639 25.600639 14.138736 0 25.599361-11.460625 25.599361-25.600639C281.599361 549.061904 270.138736 537.6 256 537.6zM793.599361 192.000959c0-7.068728-5.732231-12.79968-12.79968-12.79968L396.80032 179.201279c-7.071286 0-12.79968 5.732231-12.79968 12.79968l0 25.599361c0 7.071286 5.729673 12.79968 12.79968 12.79968l383.999361 0c7.068728 0 12.79968-5.729673 12.79968-12.79968L793.599361 192.000959zM793.599361 371.20032c0-7.071286-5.732231-12.79968-12.79968-12.79968L396.80032 358.400639c-7.071286 0-12.79968 5.729673-12.79968 12.79968l0 25.599361c0 7.068728 5.729673 12.79968 12.79968 12.79968l383.999361 0c7.068728 0 12.79968-5.732231 12.79968-12.79968L793.599361 371.20032zM793.599361 550.39968c0-7.068728-5.732231-12.79968-12.79968-12.79968L396.80032 537.6c-7.071286 0-12.79968 5.732231-12.79968 12.79968l0 25.599361c0 7.068728 5.729673 12.79968 12.79968 12.79968l383.999361 0c7.068728 0 12.79968-5.732231 12.79968-12.79968L793.599361 550.39968z"  horiz-adv-x="1024" />

    
    <glyph glyph-name="yezhu" unicode="&#58883;" d="M511.252 350.963v0 0zM539.098 63.35h-1.61c-9.164 8.959-54.793 55.601-61.619 97.92-7.589 47.054 89.449 120.977 89.449 120.977l6.822 33.423c-14.119 6.572-23.458 11.199-29.094 14.117l-0.455 51.976c9.902 9.292 24.951 29.781 32.4 72.016 14.347 5.446 23.485 23.655 25.029 50.891 0.137 2.237 0.456 5.205 0.817 8.609 2.709 25.825 4.076 48.229-6.746 60.926-0.912 1.069-1.884 2.043-2.917 2.901 3.735 30.836 5.625 53.192 4.26 67.525-2.693 29.213-21.201 124.982-148.121 130.672-88.076-4.734-141.489-70.85-147.032-130.64-1.213-12.969-0.007-33.544 4.013-67.573-1.035-0.875-2.008-1.849-2.917-2.903-10.807-12.628-9.516-34.969-6.9-60.716 0.356-3.469 0.671-6.5 0.802-8.821 1.645-27.267 10.774-45.459 25.030-50.938 7.416-42.267 22.467-62.808 32.359-72.113l-0.508-52.285c-10.412-5.494-33.148-16.763-77.416-36.024-32.808-14.3-43.876-16.229-53.64-17.932-11.622-2.026-21.663-3.775-53.051-20.184-77.594-40.564-94.635-123.182-98.372-158.624h-0.096c-0.916-5.792-3.572-24.959-0.303-34.272 8.553-18.521 28.178-32.134 49.23-32.134l420.647 0.305v31.356h-0.067v1.543l0.004-0v0.002zM511.252 350.963v0 0 0 0zM952.156 188.871c-0.513 0.661-1.107 1.253-1.769 1.765l-19.375 19.317-187.381 187.38-3.538-3.539-0.965 0.962-205.016-204.465c-0.132-0.124-0.262-0.252-0.387-0.383-1.728-1.816-2.795-4.266-2.795-6.969 0-5.588 4.53-10.118 10.118-10.118h13.972v-0.017h47.568v-174.418l285.409 0v174.417l56.306 0.017c5.496 0 9.95 4.455 9.95 9.95 0.002 2.302-0.788 4.415-2.099 6.101v0z"  horiz-adv-x="1024" />

    
    <glyph glyph-name="tishi" unicode="&#58887;" d="M512-62.709c-246.313 0-446.709 200.396-446.709 446.709s200.395 446.71 446.709 446.71 446.709-200.396 446.709-446.71-200.396-446.709-446.709-446.709zM512 766.476c-210.893 0-382.476-171.583-382.476-382.476s171.583-382.475 382.476-382.475 382.476 171.583 382.476 382.476-171.584 382.475-382.476 382.475zM612.659 247.833l-2.447 3.53-7.681 3.422h-3.53c-4.103 0-8.595-1.084-22.64-7.975l-22.5-15.191c-6.163-3.902-12.992-7.186-20.347-9.756-7.742-2.74-15.919-4.909-24.266-6.442-5.776-1.068-10.391-1.828-15.393-1.564-6.984 0.836-8.951 3.577-9.663 4.599-2.091 2.927-2.818 8.409-2.075 15.454 1.099 10.329 4.042 24.498 8.734 42.12 4.831 18.041 9.539 33.712 14.045 46.967 4.522 13.24 9.848 27.068 15.996 41.578 6.055 14.34 10.918 24.73 14.448 30.924 3.237 5.729 8.098 12.078 14.494 18.97 6.055 6.613 20.239 22.097 12.063 36.979-4.444 8.022-12.249 12.837-24.498 13.612-5.977 0-12.59-1.301-20.193-3.949-7.929-2.772-12.961-4.878-14.928-5.992-2.028-1.099-5.172-3.128-19.031-14.479-13.767-11.227-17.653-15.733-19.698-19.651-1.997-3.778-3.546-9.105-4.692-22.794-0.434-5.095-2.384-15.238-9.431-35.152l-19.961-63.939-16.074-44.118c-4.151-15.067-5.714-28.121-4.785-39.86 0.867-11.413 3.159-22.067 6.813-31.621 4.026-10.608 9.616-19.264 16.585-25.705 7.634-7.093 17.065-11.506 27.471-13.007 2.834-0.511 5.962-0.79 9.368-0.79 8.563 0 18.536 1.719 30.522 5.28 14.866 4.429 27.13 8.888 37.428 13.612 10.345 4.661 20.069 10.097 28.973 16.151 8.068 5.56 16.415 11.521 24.978 17.948 10.979 8.254 17.932 16.709 21.324 25.938 2.851 7.929 6.088 16.941 0.59 24.9zM483.836 519.775c5.163-4.316 11.574-6.676 19.229-7.121 8.993-0.89 21.502 4.494 37.481 16.203 15.936 11.707 24.396 21.010 25.286 28 0.89 6.988-1.469 17.759-7.078 32.405-5.652 14.601-10.905 23.95-15.847 28-4.985 4.051-10.816 6.277-17.537 6.722-13.087 0.445-24.752-5.521-35.123-17.851-10.327-12.375-16.96-22.301-19.897-29.691-2.938-7.433-4.363-12.731-4.363-15.847-0.445-5.43 1.113-12.508 4.719-21.277 3.603-8.769 7.966-15.314 13.131-19.543z"  horiz-adv-x="1024" />

    
    <glyph glyph-name="shangcheng" unicode="&#58974;" d="M891.076 678.35 132.917 678.35 64 472.503c0-63.458 50.14-114.891 111.998-114.891 61.866 0 111.999 51.433 111.999 114.891 0-63.458 50.139-114.891 112-114.891 61.852 0 112.004 51.433 112.004 114.891 0-63.458 50.139-114.891 111.999-114.891 61.853 0 112.004 51.433 112.004 114.891 0-63.458 50.134-114.891 111.997-114.891 61.861 0 112 51.433 112 114.891L891.076 678.35 891.076 678.35zM208.739 714.341l606.521 0c22.84 0 41.355 15.523 41.355 34.697 0 19.172-18.515 34.716-41.355 34.716L208.739 783.754c-22.832 0-41.354-15.545-41.354-34.716C167.385 729.864 185.907 714.341 208.739 714.341L208.739 714.341zM735.998 352.048c-30.385-29.24-69.95-45.277-111.998-45.277-42.054 0-81.617 16.037-112.003 45.28-30.387-29.24-69.951-45.28-112-45.28-42.051 0-81.615 16.037-111.999 45.276-30.383-29.237-69.946-45.276-112-45.276-2.883 0-5.755 0.079-8.613 0.23l0-253.354c0-42.221 37.109-69.401 68.918-69.401l551.384 0c41.497 0 68.928 31.503 68.928 69.401L856.615 307c-2.86-0.15-5.728-0.23-8.614-0.23C805.946 306.77 766.383 322.807 735.998 352.048L735.998 352.048z"  horiz-adv-x="1024" />

    
    <glyph glyph-name="duihao2" unicode="&#59038;" d="M0 384C0 666.765241 229.234759 896 512 896s512-229.234759 512-512-229.234759-512-512-512S0 101.234759 0 384z m419.310345-194.630621a35.310345 35.310345 0 0 1 49.399172-1.271172l335.518897 311.931586a35.310345 35.310345 0 0 1-48.075035 51.729655l-309.124413-289.544827-145.125518 149.645241a35.310345 35.310345 0 1 1-50.688-49.169655l168.112552-173.320828z"  horiz-adv-x="1024" />

    
    <glyph glyph-name="wenhao" unicode="&#58981;" d="M464 111.648c0-26.51 21.49-48 48-48s48 21.49 48 48-21.49 48-48 48-48-21.49-48-48zM512-64C264.96-64 64 136.96 64 384S264.96 832 512 832s448-200.96 448-448-200.96-448-448-448z m0 831.713c-211.584 0-383.713-172.129-383.713-383.713 0-211.552 172.129-383.713 383.713-383.713 211.552 0 383.713 172.16 383.713 383.713 0 211.584-172.161 383.713-383.713 383.713zM512 222.305c-17.665 0-32 14.336-32 31.999v54.112c0 52.353 39.999 92.352 75.327 127.648 25.887 25.92 52.672 52.672 52.672 74.016 0 53.344-43.072 96.736-95.999 96.736-53.823 0-96-41.536-96-94.56 0-17.664-14.335-31.999-32-31.999s-32 14.336-32 32c0 87.423 71.774 158.559 160 158.559S672 598.72 672 510.08c0-47.904-36.32-84.191-71.424-119.296-27.84-27.776-56.575-56.512-56.575-82.335v-54.112c0-17.665-14.336-32.032-32.001-32.032z"  horiz-adv-x="1024" />

    
    <glyph glyph-name="cuowu" unicode="&#59020;" d="M887.982 542.379c-20.511 48.423-49.759 91.872-87.139 129.251s-80.828 66.628-129.251 87.139c-50.123 21.238-103.402 31.918-158.257 31.918s-108.134-10.801-158.257-31.918c-48.423-20.511-91.872-49.759-129.251-87.139-37.379-37.379-66.628-80.828-87.139-129.251-21.238-50.123-31.918-103.402-31.918-158.257s10.801-108.134 31.918-158.257c20.511-48.423 49.759-91.872 87.139-129.251 37.379-37.379 80.828-66.628 129.251-87.139 50.123-21.238 103.402-31.918 158.257-31.918s108.134 10.801 158.257 31.918c48.423 20.511 91.872 49.759 129.251 87.139 37.379 37.379 66.628 80.828 87.139 129.251 21.238 50.123 31.918 103.402 31.918 158.257s-10.681 108.134-31.918 158.257zM683.364 250.501c11.286-11.286 11.286-29.855 0-41.142s-29.855-11.286-41.142 0l-132.528 132.406-132.406-132.528c-11.286-11.286-29.855-11.286-41.142 0s-11.286 29.855 0 41.142l132.406 132.406-132.528 132.528c-11.286 11.286-11.286 29.855 0 41.142 11.286 11.286 29.855 11.286 41.142 0l132.406-132.406 132.406 132.406c11.286 11.286 29.855 11.286 41.142 0s11.286-29.855 0-41.142l-132.164-132.406 132.406-132.406z"  horiz-adv-x="1024" />

    
    <glyph glyph-name="xitongpeizhi" unicode="&#58919;" d="M984.800484 462.734377h-47.378348c-21.636146 0-44.582954 16.925958-51.064582 37.614947l-27.098941 65.952872c-10.172982 19.1121-6.072047 47.250354 9.225825 62.619903l33.585689 33.457694c15.369548 15.420746 15.369548 40.482018 0 55.77989L846.290237 773.791099c-15.369548 15.369548-40.425701 15.369548-55.703093 0l-33.621527-33.457694c-15.297872-15.297872-43.487323-19.521682-62.619903-9.225825l-65.881195 27.098941c-20.617312 6.409952-37.614947 29.428436-37.614947 51.064582V856.613612C590.870051 878.249759 573.10445 896 551.468304 896H472.746726c-21.707823 0-39.458064-17.750241-39.458064-39.386388v-47.306671c0-21.707823-16.854282-44.726307-37.614947-51.136259l-65.952872-27.047743c-19.1121-10.244659-47.178677-6.072047-62.548226 9.225825l-33.585688 33.514012c-15.297872 15.369548-40.354024 15.369548-55.651896 0L122.23194 718.22624c-15.369548-15.369548-15.369548-40.425701 0-55.703094l33.457694-33.514011c15.369548-15.369548 19.521682-43.492443 9.297502-62.619903l-27.170618-66.024548c-6.409952-20.688989-29.428436-37.614947-51.064582-37.614948H39.481103C17.77328 462.734377 0.023039 445.055812 0.023039 423.347989v-78.721577c0-21.707823 17.750241-39.386388 39.386388-39.386388h47.306671c21.636146-0.071677 44.582954-16.997635 50.992905-37.686624l27.242294-65.952872c10.172982-19.1121 6.072047-47.378348-9.297501-62.619902l-33.514012-33.457695c-15.297872-15.420746-15.297872-40.497378 0-55.779889l55.77477-55.703094c15.297872-15.369548 40.354024-15.369548 55.651896 0l33.585688 33.514012c15.226195 15.297872 43.364449 19.450005 62.404872 9.154148l66.096226-27.09894c20.760666-6.481628 37.614947-29.428436 37.614947-51.064583v-47.107c0-21.636146 17.750241-39.386388 39.458064-39.386387h78.721578c21.584949 0 39.386388 17.750241 39.386387 39.386387v47.107c0 21.636146 16.997635 44.582954 37.614948 51.064583l66.024549 27.09894c19.040423 10.316336 47.322031 6.143724 62.619902-9.154148l33.386017-33.514012c15.369548-15.369548 40.425701-15.369548 55.703094 0l55.77989 55.703094c15.369548 15.369548 15.369548 40.425701 0 55.779889l-33.585689 33.457695c-15.297872 15.226195-19.378328 43.487323-9.205346 62.619902l27.098941 65.952872c6.481628 20.688989 29.500112 37.614947 51.064582 37.614947h47.306671c21.584949 0 39.33519 17.678564 39.33519 39.386388v78.793254c0.158713 21.712943-17.606888 39.386388-39.176477 39.386388z m-275.694474-78.721578c0-108.830943-88.141954-196.901219-196.901219-196.901219-108.830943 0-196.972896 88.070277-196.972896 196.901219 0 108.759266 88.21363 196.901219 196.972896 196.90122s196.901219-88.141954 196.901219-196.90122z"  horiz-adv-x="1024" />

    
    <glyph glyph-name="lingdang" unicode="&#59584;" d="M512-64c49.6 0 88 38.4 88 88H424c0-49.6 38.4-88 88-88z m288.8 286.4V451.2c0 137.6-97.6 252.8-224.8 283.2v28.8c0 32-17.6 60.8-48 67.2-44 10.4-80-23.2-80-66.4v-30.4C320.8 704 223.2 588.8 223.2 451.2v-228.8L136 132.8v-44.8h752v44.8l-87.2 89.6z"  horiz-adv-x="1024" />

    
    <glyph glyph-name="zonglan" unicode="&#59393;" d="M213.869714 755.126857h214.601143c32.329143 0 58.514286-26.185143 58.514286-58.514286v-224.256c0-32.329143-26.185143-58.514286-58.514286-58.514285H213.869714c-32.329143 0-58.514286 26.185143-58.514285 58.514285V696.612571c0 32.329143 26.185143 58.514286 58.514285 58.514286zM213.869714 349.330286h214.601143c32.329143 0 58.514286-26.185143 58.514286-58.514286v-224.256c0-32.329143-26.185143-58.514286-58.514286-58.514286H213.869714c-32.329143 0-58.514286 26.185143-58.514285 58.514286V290.816c0 32.329143 26.185143 58.514286 58.514285 58.514286zM610.450286 263.606857H825.051429c32.329143 0 58.514286-26.185143 58.514285-58.514286v-138.532571c0-32.329143-26.185143-58.514286-58.514285-58.514286H610.450286c-32.329143 0-58.514286 26.185143-58.514286 58.514286v138.532571c0 32.329143 26.185143 58.514286 58.514286 58.514286zM610.450286 755.126857H825.051429c32.329143 0 58.514286-26.185143 58.514285-58.514286v-315.830857c0-32.329143-26.185143-58.514286-58.514285-58.514285H610.450286c-32.329143 0-58.514286 26.185143-58.514286 58.514285V696.612571c0 32.329143 26.185143 58.514286 58.514286 58.514286z"  horiz-adv-x="1024" />

    
    <glyph glyph-name="zengzhifuwu" unicode="&#59005;" d="M762.759529-107.926588c-8.944941 0-18.582588 2.695529-28.641882 7.981176l-178.718118 93.952c-23.792941 12.513882-68.848941 12.483765-92.611764 0l-178.748236-93.952c-22.738824-11.956706-44.468706-9.938824-56.576 4.442353-5.963294 7.077647-12.257882 20.239059-8.402823 42.767059l34.138353 199.017412c4.788706 27.949176-8.312471 68.291765-28.611765 88.094117L79.962353 375.311059c-21.308235 20.781176-19.651765 38.791529-16.745412 47.676235 2.876235 8.884706 12.137412 24.425412 41.592471 28.702118l199.830588 29.04847c28.054588 4.080941 62.373647 29.003294 74.932706 54.437647l89.359059 181.052236c13.161412 26.684235 30.810353 30.674824 40.161882 30.674823s27.000471-3.990588 40.161882-30.674823l89.359059-181.052236c12.574118-25.434353 46.878118-50.371765 74.947765-54.437647l199.815529-29.04847c29.455059-4.276706 38.701176-19.817412 41.592471-28.702118 2.891294-8.884706 4.562824-26.895059-16.745412-47.676235l-144.594823-140.93553c-20.329412-19.787294-33.430588-60.129882-28.626824-88.094117l34.138353-199.017412c3.870118-22.528-2.424471-35.689412-8.402823-42.767059-6.806588-8.011294-16.715294-12.423529-27.979295-12.423529zM801.581176 671.457882c-6.204235 0-11.324235 4.397176-13.68847 11.791059l-12.107294 37.662118c-1.807059 5.571765-8.508235 12.288-14.095059 14.08l-37.692235 12.137412c-6.580706 2.108235-10.812235 6.415059-11.625412 11.821176s1.957647 10.797176 7.619765 14.742588l31.382588 22.016c4.713412 3.312941 8.899765 11.580235 8.749176 17.332706l-0.963764 39.122824c-0.165647 6.625882 2.198588 10.465882 4.186353 12.513882 4.743529 4.848941 12.574118 4.939294 19.516235-0.301176l31.909647-23.973647c4.442353-3.343059 14.155294-4.939294 19.471059-3.222589l36.683294 12.047059c7.408941 2.439529 14.08 0.768 17.694117-4.201412 2.800941-3.885176 3.312941-9.155765 1.41553-14.893176l-12.047059-36.683294c-1.807059-5.526588-0.286118-14.802824 3.207529-19.471059l23.973648-31.879529c4.126118-5.496471 5.135059-11.429647 2.725647-16.248471-2.379294-4.758588-7.574588-7.484235-14.260706-7.484235l-39.800471 0.978823c-6.098824 0-14.08-4.080941-17.347765-8.749176l-22.000941-31.382589c-4.728471-6.746353-10.104471-7.755294-12.905412-7.755294zM213.082353 579.734588c-3.614118 0-7.393882 1.505882-10.947765 4.321883l-14.531764 11.610353c-4.336941 3.448471-13.989647 5.315765-19.290353 3.689411l-17.79953-5.391059c-7.454118-2.228706-13.974588-0.466824-17.438117 4.517648-1.581176 2.288941-3.824941 7.303529-0.918589 15.073882l6.565647 17.408c2.048 5.436235 0.888471 14.727529-2.439529 19.486118l-10.646588 15.269647c-3.885176 5.571765-4.698353 11.489882-2.198589 16.218353 2.424471 4.653176 7.529412 8.222118 14.019765 8.222117l19.727059 0.045177h0.015059c6.384941 0 14.426353 2.996706 17.799529 7.439058l11.218824 14.366118c8.478118 11.203765 22.693647 8.011294 26.352941-5.300706l4.939294-18.025412c1.551059-5.586824 7.951059-12.498824 13.447529-14.396235l17.573648-6.113882c6.550588-2.273882 10.676706-6.701176 11.354352-12.137412 0.677647-5.421176-2.243765-10.721882-8.041411-14.531765l-15.510589-10.24c-4.833882-3.192471-9.366588-11.399529-9.487058-17.227294l-0.346353-18.567529c-0.286118-10.872471-6.927059-15.736471-13.417412-15.736471z"  horiz-adv-x="1024" />

    
    <glyph glyph-name="jianhao6" unicode="&#58880;" d="M512 783.872c52.224 0 103.424-10.24 151.040-30.72 46.080-19.456 87.552-47.616 123.392-82.944 35.84-35.84 63.488-77.312 82.944-123.392 19.968-47.616 30.72-98.816 30.72-151.040s-10.24-103.424-30.72-151.040c-19.456-46.080-47.616-87.552-82.944-123.392-35.84-35.84-77.312-63.488-123.392-82.944-47.616-19.968-98.816-30.72-151.040-30.72s-103.424 10.24-151.040 30.72c-46.080 19.456-87.552 47.616-123.392 82.944-35.84 35.84-63.488 77.312-82.944 123.392-19.968 47.616-30.72 98.816-30.72 151.040s10.24 103.424 30.72 151.040c19.456 46.080 47.616 87.552 82.944 123.392 35.84 35.84 77.312 63.488 123.392 82.944 47.616 20.48 98.816 30.72 151.040 30.72M512 843.776c-247.296 0-448-200.704-448-448s200.704-448 448-448 448 200.704 448 448-200.704 448-448 448zM542.208 366.080h184.832c16.384 0 30.208 13.312 30.208 30.208s-13.312 30.208-30.208 30.208h-184.832M558.592 425.984h-261.632c-16.384 0-30.208-13.312-30.208-30.208s13.312-30.208 30.208-30.208h261.632z"  horiz-adv-x="1024" />

    
    <glyph glyph-name="fangyuan" unicode="&#59406;" d="M980.676923 502.153846H630.153846V829.046154c0 23.630769-19.692308 43.323077-43.323077 43.323077H43.323077C19.692308 868.430769 0 852.676923 0 829.046154v-890.092308c0-23.630769 19.692308-43.323077 43.323077-43.323077h945.230769c23.630769 0 43.323077 19.692308 43.323077 43.323077V462.769231c-7.876923 23.630769-27.569231 39.384615-51.2 39.384615z m-559.261538-370.215384h-236.307693c-15.753846 0-27.569231 15.753846-27.56923 31.507692s11.815385 27.569231 27.56923 27.569231h236.307693c15.753846 0 27.569231-11.815385 27.56923-27.569231 0-15.753846-11.815385-31.507692-27.56923-31.507692z m0 236.307692h-236.307693c-15.753846 0-27.569231 11.815385-27.56923 27.569231 0 15.753846 11.815385 27.569231 27.56923 27.56923h236.307693c15.753846 0 27.569231-11.815385 27.56923-27.56923 0-15.753846-11.815385-27.569231-27.56923-27.569231z m0 236.307692h-236.307693c-15.753846 0-27.569231 11.815385-27.56923 27.569231 0 15.753846 11.815385 27.569231 27.56923 27.569231h236.307693c15.753846 0 27.569231-11.815385 27.56923-27.569231 0-15.753846-11.815385-27.569231-27.56923-27.569231z"  horiz-adv-x="1031" />

    
    <glyph glyph-name="financetb" unicode="&#59831;" d="M857.93903 240.45577200000002c3.582209-2.046977 7.676162-3.070465 11.770115-3.070465 8.69965 0 17.3993 4.605697 22.004998 12.793604 55.78011 102.348826 68.573713 220.049975 36.333833 331.610194-67.038481 230.796602-308.069965 363.850075-537.843078 296.811595C213.141429 826.402799 87.764118 667.250375 78.552724 481.487256c-0.511744-13.817091 9.723138-25.587206 23.54023-26.09895 13.305347-1.023488 25.587206 9.723138 26.09895 23.54023 8.187906 164.269865 119.236382 305.511244 275.830085 351.568216 203.162419 59.362319 417.071464-58.338831 475.922039-262.524738 28.657671-98.766617 17.3993-203.162419-32.23988-293.741129-6.14093-12.281859-2.046977-27.122439 10.234882-33.775113zM627.654173 540.849575c13.817091 0 25.075462 11.258371 25.075462 25.075462s-11.258371 25.075462-25.075462 25.075463h-76.761619l69.597201 91.602199c8.187906 10.746627 6.14093 26.610695-4.605697 35.310344-10.746627 8.187906-26.610695 6.14093-34.798601-4.605697L512 622.2168919999999 442.914543 712.795602c-8.187906 10.746627-24.051974 12.793603-34.798601 4.605697-10.746627-8.187906-12.793603-24.051974-4.605697-35.310344l69.597201-91.602199h-76.761619c-13.817091 0-25.075462-11.258371-25.075462-25.075463s11.258371-25.075462 25.075462-25.075462h90.578711V476.369815H396.345827c-13.817091 0-25.075462-11.258371-25.075462-25.075462s11.258371-25.075462 25.075462-25.075462h90.578711v-114.118941c0-13.817091 11.258371-25.075462 25.075462-25.075462s25.075462 11.258371 25.075462 25.075462V426.218891h90.578711c13.817091 0 25.075462 11.258371 25.075462 25.075462s-11.258371 25.075462-25.075462 25.075462h-90.578711V540.849575h90.578711zM973.593203 124.28985499999999c-102.86057 21.493253-219.026487 86.484758-219.026486 86.484758-50.662669 34.286857-90.578711 50.662669-121.795103 50.662668-26.098951 0-48.103948-12.281859-60.385807-33.263368-15.352324-27.122439-10.234883-62.944528 2.558721-84.949525 5.629185-9.723138 17.3993-27.122439 29.681159-44.521739-253.825087 15.864068-297.835082 74.202899-347.986007 141.241379-15.864068 20.981509-31.728136 42.474763-54.244877 63.968016-40.93953 39.916042-74.714643 58.338831-105.419291 58.338831-24.051974 0-44.521739-11.258371-57.827086-32.23988-27.634183-42.474763-18.422789-119.748126-8.187906-143.288356 114.630685-266.106947 390.46077-312.163918 402.230884-314.210895 2.046977-0.511744 3.582209-0.511744 5.629186-0.511744h527.096451c20.469765 0 37.357321 16.887556 37.357322 37.357321V87.44427800000005c0 17.911044-12.281859 33.263368-29.68116 36.845577z m-19.958021-201.627186H439.844078c-19.446277 3.070465-261.501249 48.103948-363.338331 284.529735-6.652674 15.864068-10.746627 72.155922 4.605697 95.696152 5.629185 8.187906 11.258371 9.211394 16.375812 9.211394 11.258371 0 32.751624-7.676162 70.62069-44.521739 19.446277-18.934533 33.775112-37.869065 49.127436-58.338831 65.503248-86.484758 127.424288-144.311844 384.31984-160.687656h3.070465c17.911044 0 34.286857 9.723138 43.498251 25.587207 9.211394 16.887556 8.187906 37.357321-2.558721 53.221389-17.3993 25.075462-24.563718 36.333833-27.634183 41.451274-5.117441 8.69965-7.164418 25.587206-2.046976 34.798601 3.070465 5.117441 8.69965 7.676162 16.887556 7.676162 11.770115 0 39.404298-5.629185 94.16092-42.474763 1.535232-1.023488 3.582209-2.046977 5.117441-3.070465 28.657671-15.864068 127.424288-67.038481 221.585207-88.531734v-154.546726z"  horiz-adv-x="1024" />

    
    <glyph glyph-name="xiangji" unicode="&#59006;" d="M942.08 609.28C917.048889 634.311111 887.466667 645.688889 853.333333 645.688889h-109.226666l-25.031111 65.991111c-6.826667 15.928889-18.204444 29.582222-34.133334 40.96s-34.133333 18.204444-50.062222 18.204444h-250.311111c-18.204444 0-34.133333-6.826667-50.062222-18.204444-15.928889-11.377778-27.306667-25.031111-34.133334-40.96L273.066667 645.688889H161.564444c-34.133333 0-63.715556-11.377778-88.746666-36.408889S36.408889 554.666667 36.408889 520.533333v-439.182222c0-34.133333 11.377778-63.715556 36.408889-88.746667s54.613333-36.408889 88.746666-36.408888h691.768889c34.133333 0 63.715556 11.377778 88.746667 36.408888s36.408889 54.613333 36.408889 88.746667V520.533333c0 34.133333-11.377778 63.715556-36.408889 88.746667zM507.448889 101.831111c-113.777778 0-207.075556 93.297778-207.075556 207.075556s93.297778 207.075556 207.075556 207.075555 207.075556-93.297778 207.075555-207.075555-93.297778-207.075556-207.075555-207.075556zM507.448889 445.44c-77.368889 0-138.808889-61.44-138.808889-138.808889 0-77.368889 61.44-138.808889 138.808889-138.808889s138.808889 61.44 138.808889 138.808889c0 77.368889-61.44 138.808889-138.808889 138.808889z"  horiz-adv-x="1024" />

    
    <glyph glyph-name="shuju" unicode="&#59093;" d="M169.890909 169.890909H34.909091c-18.618182 0-32.581818-13.963636-32.581818-32.581818v-232.727273c0-18.618182 13.963636-32.581818 32.581818-32.581818h137.309091c18.618182 0 32.581818 13.963636 32.581818 32.581818v232.727273c-2.327273 18.618182-16.290909 32.581818-34.909091 32.581818z m274.618182 425.890909h-137.309091c-18.618182 0-32.581818-13.963636-32.581818-32.581818v-658.618182c0-18.618182 13.963636-32.581818 32.581818-32.581818h137.309091c18.618182 0 32.581818 13.963636 32.581818 32.581818V563.2c-2.327273 18.618182-16.290909 32.581818-32.581818 32.581818z m272.290909-218.763636h-137.309091c-18.618182 0-32.581818-13.963636-32.581818-32.581818v-439.854546c0-18.618182 13.963636-32.581818 32.581818-32.581818h137.309091c18.618182 0 32.581818 13.963636 32.581818 32.581818v442.181818c0 16.290909-13.963636 30.254545-32.581818 30.254546zM989.090909 893.672727h-137.309091c-18.618182 0-32.581818-13.963636-32.581818-32.581818v-956.509091c0-18.618182 13.963636-32.581818 32.581818-32.581818h137.309091c18.618182 0 32.581818 13.963636 32.581818 32.581818V861.090909c0 18.618182-13.963636 32.581818-32.581818 32.581818z m0 0"  horiz-adv-x="1024" />

    
    <glyph glyph-name="yingxiao" unicode="&#59269;" d="M1023.233984 342.410397l-227.783055 127.968008V728.36191c0 9.725569-6.142464 19.963009-14.844289 25.081729L533.372449 892.16096c-8.701825 5.11872-20.986753 5.11872-29.176706 0L256.961552 753.443639c-8.189953-5.11872-14.332417-15.356161-14.332417-25.081729V470.890277L14.334208 342.922269c-8.189953-5.11872-14.332417-15.356161-14.332416-25.081729v-277.946514c0-9.725569 6.142464-19.963009 14.844288-25.081729l247.746064-138.717321c8.701825-5.11872 20.986753-5.11872 29.176706 0l228.294926 127.968008 227.271182-127.968008c4.094976-2.55936 9.213697-3.583104 14.844289-3.583104s10.237441 1.535616 14.332417 3.583104l247.746064 139.229193c8.189953 5.11872 14.332417 15.356161 14.332416 25.08173V317.328668c-0.511872 9.725569-6.654336 19.963009-15.35616 25.081729zM243.141007 159.16021v-194.511372l-174.036491 97.767558v194.511372l174.036491-97.767558z m242.115471 410.52137v-194.511373l-174.036491 97.767559v194.511372l174.036491-97.767558z m-34.807298-254.912272l-173.524619-96.743814-173.012747 96.743814 173.524619 96.743814 173.012747-96.743814z m34.807298-58.353412v-194.511372l-174.036491-97.767558v194.511372l174.036491 97.767558z m207.308173 469.386653l-173.524619-97.255686-173.012747 97.255686 173.524619 97.255686 173.012747-97.255686z m242.115471-411.033241l-173.012747-97.255686-173.012747 97.255686 173.524619 96.743814 172.500875-96.743814z m-207.308173-155.609098v-194.511372l-174.036491 97.767558v194.511372l174.036491-97.767558z m-174.036491 216.009997v194.511373l173.524619 97.255686v-194.511372l-173.524619-97.255687z m416.663834-118.754311v-194.511372l-174.036491-97.767558v194.511372l174.036491 97.767558z"  horiz-adv-x="1038" />

    
    <glyph glyph-name="fangyuan-xuanzhong" unicode="&#58889;" d="M956.3 413.8L536.7 833.4C523 847 501 847 487.3 833.4L67.7 413.8C54 400.1 54 378 67.7 364.4c6.8-6.8 15.8-10.2 24.7-10.2h57v-347.4c0-41.8 34-75.9 75.9-75.9h180.1c19.3 0 34.9 15.6 34.9 34.9V242.5c0 3.3 2.7 6 6 6h131.2c3.3 0 6-2.7 6-6v-276.6c0-19.3 15.6-34.9 34.9-34.9h180.2c41.8 0 75.9 34 75.9 75.9V354.2h57c8.9 0 17.9 3.4 24.7 10.2 13.8 13.6 13.8 35.7 0.1 49.4z"  horiz-adv-x="1024" />

    
    <glyph glyph-name="caidan2" unicode="&#58886;" d="M417.2 679h501.6c22.4 0 40.5 18.6 40.5 41s-18.1 41-40.5 41H417.2c-22.4 0-40.5-18.6-40.5-41s18.1-41 40.5-41zM918.8 436H417.2c-22.4 0-40.5-18.1-40.5-40.5s18.1-40.5 40.5-40.5h501.6c22.4 0 40.5 18.1 40.5 40.5S941.2 436 918.8 436zM918.8 95H416.2c-22.4 0-40.5-18.6-40.5-41s18.1-41 40.5-41h502.6c22.4 0 40.5 18.6 40.5 41s-18.1 41-40.5 41zM233.8 761H107.1c-22.4 0-40.5-18.6-40.5-41s18.1-41 40.5-41h126.7c22.4 0 40.5 18.6 40.5 41s-18.1 41-40.5 41zM233.8 419H107.1c-22.4 0-40.5-18.1-40.5-40.5S84.7 338 107.1 338h126.7c22.4 0 40.5 18.1 40.5 40.5S256.2 419 233.8 419zM233.8 95H105.1c-22.4 0-40.5-18.6-40.5-41s18.1-41 40.5-41h128.7c22.4 0 40.5 18.6 40.5 41s-18.1 41-40.5 41z"  horiz-adv-x="1024" />

    
    <glyph glyph-name="yingxiao1" unicode="&#59154;" d="M49.091555-5.686471h268.836591v431.97404l-73.577995 51.346364-195.258596-166.143861v-317.176543z m332.287723 0h268.836592V423.755853L520.307193 314.496485l-138.927915 75.555899v-395.738855z m332.287723 480.313992v-480.234876h268.836592V471.621108l-114.718381 151.032682-154.118211-148.026269zM93.554817 431.746581l146.206598 122.313529 279.27992-170.020552 331.259214 311.954879c1.186742 1.107626 2.136135 2.4526 3.164645 3.718458l55.776867-56.409797L999.038863 896 741.357645 813.007185l61.710577-62.343506-2.4526-1.898787-291.068222-274.137371-276.510855 168.279997L47.034536 487.286101a36.156069 36.156069 0 1 1 46.520281-55.53952z m882.856834-487.197095H47.588349a36.314301 36.314301 0 0 1 0-72.47037h928.823302a36.235185 36.235185 0 1 1 0 72.47037z"  horiz-adv-x="1024" />

    
    <glyph glyph-name="sousuo" unicode="&#59028;" d="M704.433231 247.256615l252.061538-251.982769-55.768615-55.689846-252.061539 252.061538a393.846154 393.846154 0 1 0 55.768616 55.611077z m-82.235077 26.545231a315.076923 315.076923 0 1 1-445.518769 445.518769 315.076923 315.076923 0 0 1 445.518769-445.518769z"  horiz-adv-x="1024" />

    
    <glyph glyph-name="bianji" unicode="&#59083;" d="M1006.912 668.48a55.04 55.04 0 0 1 0 79.68L876.032 878.912a54.912 54.912 0 0 1-79.616 0l-102.464-102.4 216.192-216.128 96.768 108.096zM0 88.19200000000001l625.792 631.424 216.128-216.128L216.192-128H0v216.192z"  horiz-adv-x="1024" />

    
    <glyph glyph-name="quanxian" unicode="&#59036;" d="M908.8 174.933333h-29.866667V213.333333c0 40.533333-34.133333 74.666667-76.8 74.666667S725.333333 253.866667 725.333333 213.333333v-38.4h-29.866666c-23.466667 0-42.666667-19.2-42.666667-40.533333v-123.733333c0-23.466667 19.2-40.533333 42.666667-40.533334h213.333333c23.466667 0 42.666667 19.2 42.666667 40.533334v123.733333c0 21.333333-19.2 40.533333-42.666667 40.533333zM765.866667 213.333333c0 19.2 14.933333 34.133333 34.133333 34.133334s34.133333-14.933333 34.133333-34.133334v-38.4h-68.266666V213.333333zM558.933333 74.666667c0 147.2 119.466667 264.533333 264.533334 264.533333 40.533333 0 78.933333-8.533333 113.066666-25.6 8.533333 6.4 14.933333 17.066667 14.933334 27.733333v104.533334c0 19.2-14.933333 34.133333-34.133334 34.133333h-59.733333c-14.933333 0-27.733333 8.533333-32 21.333333-4.266667 14.933333-10.666667 29.866667-19.2 44.8-6.4 12.8-4.266667 27.733333 6.4 38.4l38.4 38.4c17.066667 17.066667 17.066667 38.4 4.266667 51.2L782.933333 746.666667c-12.8 12.8-34.133333 12.8-46.933333 0l-42.666667-42.666667c-10.666667-10.666667-25.6-12.8-38.4-6.4l-44.8 19.2c-12.8 4.266667-21.333333 17.066667-21.333333 32V802.133333c0 25.6-14.933333 40.533333-34.133333 40.533334h-104.533334c-19.2 0-34.133333-14.933333-34.133333-34.133334v-59.733333c0-14.933333-8.533333-27.733333-21.333333-32-14.933333-4.266667-29.866667-10.666667-44.8-19.2-12.8-6.4-27.733333-4.266667-38.4 6.4l-42.666667 42.666667c-12.8 14.933333-34.133333 14.933333-46.933333 0L149.333333 674.133333c-12.8-12.8-12.8-34.133333 0-46.933333l42.666667-42.666667c10.666667-10.666667 12.8-25.6 6.4-38.4l-19.2-44.8c-4.266667-12.8-17.066667-21.333333-32-21.333333H87.466667c-19.2 0-34.133333-14.933333-34.133334-34.133333V341.333333c0-19.2 14.933333-34.133333 34.133334-34.133333h59.733333c14.933333 0 27.733333-8.533333 32-21.333333 4.266667-14.933333 10.666667-29.866667 19.2-44.8 6.4-12.8 2.133333-27.733333-6.4-38.4l-38.4-38.4c-17.066667-17.066667-17.066667-36.266667-4.266667-51.2l74.666667-74.666667c12.8-12.8 34.133333-12.8 46.933333 0l42.666667 42.666667c10.666667 10.666667 25.6 12.8 38.4 6.4l44.8-19.2c12.8-4.266667 21.333333-17.066667 21.333333-32v-53.333334c0-25.6 14.933333-40.533333 34.133334-40.533333H554.666667c12.8 0 23.466667 6.4 27.733333 17.066667-14.933333 38.4-23.466667 74.666667-23.466667 115.2z m-27.733333 172.8c-104.533333-19.2-196.266667 70.4-174.933333 174.933333 10.666667 59.733333 57.6 106.666667 117.333333 117.333333 104.533333 19.2 196.266667-70.4 174.933333-174.933333-10.666667-59.733333-57.6-106.666667-117.333333-117.333333z"  horiz-adv-x="1024" />

    
    <glyph glyph-name="fangyuanshitu" unicode="&#58897;" d="M677.974281 604.870163h72.859497v-83.085274h-72.859497v83.085274z m166.173393 0h72.855704v-83.085274h-72.855704v83.085274zM677.974281 466.392178h72.859497v-83.084326h-72.859497v83.084326z m166.173393 0h72.855704v-83.084326h-72.855704v83.084326z m269.370785 0h36.429748v-83.084326h-36.429748v83.084326z m0-138.476089h36.429748v-83.090015h-36.429748v83.090015z m-435.544178 0h72.859497v-83.090015h-72.859497v83.090015z m166.173393 0h72.855704v-83.090015h-72.855704v83.090015z m407.096889-268.219733V558.210844h-202.600296V743.348148H550.125985v-683.651792H522.42963v-36.433541h775.478044v36.433541h-46.663111z m-664.692622 0V706.9184h425.66637v-647.222044H586.551941z m462.092326 0V521.784889h166.17434v-462.088533h-166.17434z m0 18.962963"  horiz-adv-x="1820" />

    
    <glyph glyph-name="gongsi-" unicode="&#58917;" d="M234.9 669.1c0 25.9 25.1 46.9 56 46.9h226.9c30.5 0 55.3-21.1 55.3-46.9v-580.9h40V555.8h132.5c25.9 0 46.9-21.1 46.9-46.9v-413.5h40V508.8c0 47.9-39 86.9-86.9 86.9H613v73.4c0 23.7-10.2 45.8-28.7 62.3-17.9 15.9-41.5 24.7-66.6 24.7H290.9c-52.9 0-96-39-96-86.9v-580.9h40V669.1zM145.8 54.8h734.9v-40H145.8zM286.9 541.9h124.7v-40H286.9zM448.1 542.1h63.2v-40h-63.2zM286.9 406.9h124.7v-40H286.9zM448.1 407.1h63.2v-40h-63.2zM286.9 279.4h124.7v-40H286.9zM448.1 279.7h63.2v-40h-63.2zM638.5 462.9h71v-40h-71zM730.2 463h36v-40h-36zM638.5 338.1h71v-40h-71zM730.2 338.3h36v-40h-36zM638.5 211.3h71v-40h-71zM730.2 211.5h36v-40h-36z"  horiz-adv-x="1024" />

    
    <glyph glyph-name="_1" unicode="&#58895;" d="M443.818667 680.661333c-43.451733 46.72-114.7904 59.153067-172.3904 25.890134-66.235733-38.237867-89.301333-122.402133-52.386134-189.0304 47.479467 82.525867 128.631467 143.2064 224.776534 163.140266zM805.888 519.296c22.024533 41.250133 23.031467 92.526933-2.065067 136.0128-38.664533 66.961067-124.288 89.9072-191.2576 51.242667a139.921067 139.921067 0 0 1-32.162133-25.540267c96.196267-19.421867 177.570133-79.598933 225.4848-161.7152zM512.955733 656.017067c-169.3696 0-306.670933-137.301333-306.670933-306.670934C206.2848 179.968 343.586133 42.666667 512.955733 42.666667 682.325333 42.666667 819.626667 179.968 819.626667 349.346133c0.008533 169.3696-137.2928 306.670933-306.670934 306.670934z m0-581.691734c-151.8848 0-275.012267 123.127467-275.012266 275.012267s123.127467 275.012267 275.012266 275.012267S787.968 501.2224 787.968 349.3376 664.849067 74.325333 512.955733 74.325333zM512.955733 606.634667c-140.288 0-254.020267-115.2-254.020266-257.297067s113.732267-257.297067 254.020266-257.297067 254.020267 115.2 254.020267 257.297067c0 142.1056-113.723733 257.297067-254.020267 257.297067z m115.165867-240.520534L442.5216 164.864l93.917867 158.762667H397.7984l114.013867 156.526933 116.309333 53.666133-136.405333-167.7056h136.405333z"  horiz-adv-x="1024" />

    
    <glyph glyph-name="_2" unicode="&#58898;" d="M618.6496 517.8624c11.118933 15.0272-10.6496 46.336-34.065067 34.747733-22.365867-11.136-38.519467-29.2608-52.445866-47.104 11.972267-1.109333 24.1408-1.399467 36.164266-0.785066 14.660267 0.657067 41.787733 1.732267 50.346667 13.141333zM510.8736 725.333333c-152.567467-0.418133-275.549867-254.609067-275.1232-407.176533 0.426667-152.576 124.4416-275.908267 277.009067-275.490133 152.567467 0.418133 275.908267 124.4416 275.4816 277.009066C787.822933 472.2432 663.441067 725.751467 510.8736 725.333333z m-16.401067-528.759466H353.186133c-8.925867 0-11.776 2.696533-11.776 12.5184V384.3328h153.0624v-187.758933z m187.656534 12.5184c0-9.838933-2.833067-12.5184-11.767467-12.5184H529.058133V384.3328h153.079467v-175.240533z m17.3056 192.238933l-170.5984-0.034133v85.2992h-34.1248v-85.2992l-170.5984 0.034133v68.206933c0 11.118933 6.519467 17.058133 17.058133 17.058134h85.2992c-21.1712 4.676267-41.6256 19.703467-42.205867 37.393066-0.597333 20.8128 21.632 54.4512 54.084267 46.779734 33.501867-7.970133 56.891733-35.362133 74.837333-58.820267 18.082133 23.918933 43.707733 54.7584 78.660267 59.605333 29.226667 3.908267 53.384533-26.922667 50.244267-47.2576-2.679467-17.826133-24.430933-33.006933-45.021867-37.700266h85.2992c10.5216 0 17.058133-5.9392 17.058133-17.058134v-68.206933zM441.915733 552.302933c-16.1536 6.724267-25.642667-0.494933-32.443733-12.3648-3.703467-6.741333-7.697067-15.658667-1.792-22.229333 15.556267-16.887467 58.24-15.658667 86.852267-12.501333-13.5168 17.826133-30.097067 37.700267-52.616534 47.095466z"  horiz-adv-x="1024" />

    
    <glyph glyph-name="_3" unicode="&#58899;" d="M644.829867 502.613333c4.949333-17.706667 26.513067-27.690667 47.931733-22.186666l61.6448 15.8464c21.418667 5.504 34.8928 24.4992 29.943467 42.205866-4.949333 17.706667-26.513067 27.690667-47.931734 22.186667l-61.6448-15.8464c-21.418667-5.512533-34.8928-24.4992-29.943466-42.205867zM758.9632 479.957333l-61.6448-15.8464c-21.418667-5.504-34.8928-24.4992-29.943467-42.205866s26.513067-27.690667 47.931734-22.186667l61.6448 15.8464c21.418667 5.504 34.8928 24.4992 29.943466 42.205867s-26.513067 27.690667-47.931733 22.186666zM781.508267 399.2576l-61.6448-15.8464c-21.418667-5.504-34.8928-24.4992-29.943467-42.205867 4.949333-17.706667 26.513067-27.690667 47.931733-22.186666l61.6448 15.8464c21.418667 5.504 34.8928 24.4992 29.943467 42.205866-4.949333 17.706667-26.513067 27.690667-47.931733 22.186667zM851.985067 296.3712c-4.949333 17.706667-26.513067 27.690667-47.931734 22.186667l-61.6448-15.8464c-21.418667-5.504-34.8928-24.4992-29.943466-42.205867s26.513067-27.690667 47.931733-22.186667l61.6448 15.8464c21.410133 5.504 34.884267 24.490667 29.943467 42.205867zM688.008533 691.524267c11.562667-9.002667 18.807467-21.8112 20.343467-36.1472l22.4256 2.312533c-2.2272 20.0704-12.424533 38.135467-28.654933 50.875733a78.967467 78.967467 0 0 1-57.0112 16.341334l2.4576-21.7856c14.592 1.5616 28.9792-2.56 40.439466-11.5968zM335.675733 490.4704l19.874134 5.111467c-3.208533 39.304533 22.545067 76.535467 62.805333 86.877866l161.467733 41.472c45.115733 11.588267 92.0576-14.788267 104.968534-58.6752l18.440533 4.736L688.452267 622.933333c-12.4416 44.561067-59.835733 71.4496-105.335467 59.767467l-198.2464-50.909867c-45.4912-11.682133-72.541867-57.7024-60.1088-102.254933l10.914133-39.0656z m114.7648 141.2352l75.9296 19.498667a3.592533 3.592533 0 0 0 4.343467-2.466134 3.421867 3.421867 0 0 0-2.474667-4.215466l-75.9296-19.498667a3.592533 3.592533 0 0 0-4.343466 2.466133 3.413333 3.413333 0 0 0 2.474666 4.215467zM798.122667 230.033067l-20.881067-5.367467c0.930133-37.5808-24.32-72.354133-63.0016-82.295467l-161.467733-41.472c-45.499733-11.682133-92.893867 15.214933-105.335467 59.767467l-52.7872 189.098667-18.389333-4.727467 66.961066-239.880533c12.4416-44.561067 59.835733-71.4496 105.335467-59.767467l198.2464 50.909867c45.4912 11.682133 72.541867 57.7024 60.1088 102.254933l-8.789333 31.479467zM444.714667 379.255467c36.949333 9.4976 60.270933 42.0352 51.8144 72.302933-8.456533 30.267733-45.610667 47.266133-82.56 37.768533l-106.376534-27.3408a81.467733 81.467733 0 0 1-20.855466-8.593066c-86.493867-38.971733-134.331733-132.181333-108.9536-223.0272 28.535467-102.135467 138.7776-162.551467 246.263466-134.9632l-72.593066 259.874133 93.2608 23.978667z"  horiz-adv-x="1024" />

    
    <glyph glyph-name="_4" unicode="&#58900;" d="M525.073067 268.9792c-8.6528 19.498667-18.193067 38.203733-31.240534 55.313067a158.293333 158.293333 0 0 1-16.349866 18.133333l-137.984-37.6832-57.429334 210.286933 348.100267 95.069867 55.492267-203.204267c20.8896 13.755733 46.967467 11.332267 65.595733-6.6816 5.922133-5.725867 10.939733-6.468267 18.6368-3.882666 7.876267 2.645333 15.607467 3.515733 22.8096 2.7648l-6.741333 24.6784a28.040533 28.040533 0 0 0-14.779734 54.101333l-4.258133 15.5904a39.5776 39.5776 0 1 0-20.855467 76.356267l-4.258133 15.5904a28.040533 28.040533 0 0 0-14.779733 54.101333l-7.296 26.717867a28.049067 28.049067 0 0 0-34.440534 19.6608 27.921067 27.921067 0 0 0 8.149334 27.938133L170.666667 571.050667a27.912533 27.912533 0 0 0 21.213866-19.9168 27.972267 27.972267 0 0 0-15.616-32.878934l7.5264-27.554133c13.499733 1.518933 26.4704-6.869333 30.1568-20.3776s-3.217067-27.332267-15.616-32.878933l4.437334-16.247467a39.560533 39.560533 0 0 0 20.727466-75.869867l4.437334-16.247466a27.972267 27.972267 0 0 0 30.1568-20.3776 27.972267 27.972267 0 0 0-15.616-32.878934l7.5264-27.554133a27.972267 27.972267 0 0 0 30.1568-20.3776 27.938133 27.938133 0 0 0-8.234667-28.023467l253.149867 69.111467zM851.9424 205.252267c-6.1184 50.909867-24.558933 98.781867-42.2144 146.594133-7.68 20.804267-27.690667 29.346133-48.878933 21.947733-6.408533-2.235733-10.589867-1.5872-15.522134 3.362134-16.768 16.836267-40.789333 17.9712-58.752 2.6624-5.188267-4.420267-8.866133-4.625067-14.685866-1.570134-20.4032 10.692267-39.7312 7.5264-55.466667-8.362666-10.274133-10.368-10.0864-10.222933-19.131733 1.220266-17.8688 22.596267-38.161067 42.513067-65.928534 52.420267-21.2736 7.586133-42.257067-1.681067-51.643733-21.461333-11.136-23.4752-6.033067-43.323733 14.865067-56.507734a132.1472 132.1472 0 0 0 36.411733-34.0224c20.778667-28.305067 30.958933-61.602133 45.474133-95.214933-10.845867 5.026133-19.857067 9.224533-28.885333 13.380267-7.850667 3.6096-16.196267 5.7344-24.738133 5.026133-22.7072-1.885867-43.656533-21.640533-48.2816-44.859733-4.283733-21.512533 6.766933-43.784533 28.0064-54.724267 45.3632-23.364267 91.204267-45.738667 138.180266-65.749333 37.1456-15.8208 75.170133-20.1984 114.2272-8.8832 76.731733 22.229333 105.275733 75.537067 96.964267 144.7424z"  horiz-adv-x="1024" />

    
    <glyph glyph-name="_5" unicode="&#58901;" d="M512 725.333333c-188.509867 0-341.333333-152.823467-341.333333-341.333333s152.823467-341.333333 341.333333-341.333333 341.333333 152.823467 341.333333 341.333333-152.823467 341.333333-341.333333 341.333333z m0-638.08c-163.882667 0-296.746667 132.855467-296.746667 296.746667 0 163.882667 132.855467 296.746667 296.746667 296.746667S808.746667 547.882667 808.746667 384 675.882667 87.253333 512 87.253333zM461.3376 427.844267l4.949333 9.787733L362.257067 617.813333c-73.096533-46.907733-122.794667-127.086933-127.573334-219.195733h213.307734a64.861867 64.861867 0 0 0 13.346133 29.226667zM512 527.914667l30.6432-60.526934 94.865067 164.309334A276.437333 276.437333 0 0 1 512 661.700267a276.3776 276.3776 0 0 1-126.958933-30.7456l95.4368-165.2992L512 527.914667zM562.6624 427.844267a64.861867 64.861867 0 0 0 13.346133-29.226667h213.2992c-4.804267 92.689067-55.099733 173.294933-128.938666 220.074667L556.834133 439.355733l5.828267-11.511466zM575.2832 372.309333a64.938667 64.938667 0 0 0-20.9664-34.525866l108.066133-187.1872c73.514667 47.4624 123.1616 128.648533 127.0272 221.713066H575.2832zM448.7168 372.309333H234.5984c3.831467-92.484267 52.8896-173.252267 125.653333-220.834133l108.2112 187.426133a64.887467 64.887467 0 0 0-19.746133 33.408zM512 322.0736a64.930133 64.930133 0 0 0-20.864 3.4816L382.9248 138.129067A276.386133 276.386133 0 0 1 512 106.299733c46.0288 0 89.403733 11.264 127.633067 31.086934L531.319467 324.992a65.0752 65.0752 0 0 0-19.319467-2.9184z"  horiz-adv-x="1024" />

    
    <glyph glyph-name="_6" unicode="&#58902;" d="M659.899733 163.968H222.5152c-24.840533 0-45.166933-20.770133-45.166933-46.148267s20.3264-46.148267 45.166933-46.148266h437.393067c24.840533 0 45.166933 20.770133 45.166933 46.148266-0.008533 25.386667-20.334933 46.148267-45.175467 46.148267zM839.2448 294.997333L702.378667 431.1552a25.156267 25.156267 0 0 1-23.210667 6.664533l-69.888 69.521067 44.322133 44.066133-0.017066 0.017067 0.034133 0.034133L533.162667 671.2832 389.393067 528.256l40.029866-39.816533 80.366934-80.017067 0.034133 0.034133 0.017067-0.017066 44.16 43.9296 69.947733-69.5808a24.832 24.832 0 0 1 6.7328-22.954667l136.942933-136.157867a25.216 25.216 0 0 1 35.5072 0l36.189867 36.002134a24.840533 24.840533 0 0 1-0.0768 35.319466zM375.057067 397.789867l-0.0256-0.008534 63.266133-62.933333a25.216 25.216 0 0 1 35.5072 0l24.0128 23.893333a24.849067 24.849067 0 0 1 7.3472 17.664 25.002667 25.002667 0 0 1-7.3472 17.723734L371.7632 519.517867a25.216 25.216 0 0 1-35.5072 0l-24.0128-23.8848a24.9088 24.9088 0 0 1 0-35.328l62.813867-62.5152zM609.262933 625.297067l63.266134-62.933334c9.728-9.6768 25.642667-9.6768 35.515733 0.068267l24.0128 23.8848a24.9088 24.9088 0 0 1 0 35.328l-38.5024 38.2976-0.0512-0.017067-87.5776 87.108267a25.224533 25.224533 0 0 1-35.515733 0l-24.0128-23.8848a24.9088 24.9088 0 0 1 0-35.328l62.865066-62.523733z"  horiz-adv-x="1024" />

    
    <glyph glyph-name="_7" unicode="&#58903;" d="M560.861867 478.5152l-52.8384-52.8384-52.8384 52.8384h-35.234134l72.106667-70.656-54.5024 0.213333v-17.604266h52.864v-35.234134h-52.864v-17.604266h52.8384v-35.234134h35.234133v35.234134h52.8384v17.604266h-52.8384v35.234134h52.8128v17.604266l-48.349866-0.213333 66.005333 70.656zM724.8384 604.322133h-45.858133v-38.229333h-13.781334v38.229333H363.528533v-38.229333h-13.781333v38.229333h-50.5856c-32.469333 0-59.042133-26.564267-59.042133-59.042133v-322.56c0-32.469333 26.564267-59.042133 59.042133-59.042133h48.221867v38.229333h13.781333v-38.229333h301.661867v38.229333h13.781333v-38.229333h48.221867c32.469333 0 59.042133 26.564267 59.042133 59.042133V545.28c0.008533 32.469333-26.564267 59.042133-59.0336 59.042133zM508.023467 238.208c-84.078933 0-152.2432 68.164267-152.2432 152.2432s68.164267 152.2432 152.2432 152.2432 152.2432-68.164267 152.2432-152.2432-68.164267-152.2432-152.2432-152.2432zM853.333333 431.744V595.3536c0 35.7376-27.6992 64.989867-61.559466 64.989867H232.226133c-33.860267 0-61.559467-29.252267-61.559466-64.989867v-163.6864c26.5216-3.584 46.1824-17.399467 46.1824-47.6672S197.188267 339.9936 170.666667 336.324267v-163.6864c0-35.729067 27.6992-64.989867 61.559466-64.989867h559.470934c33.860267 0 61.559467 29.252267 61.559466 64.989867V336.4096c-26.5216 3.592533-46.1824 17.399467-46.1824 47.6672 0.0768 30.276267 19.729067 44.0064 46.2592 47.6672z m-49.7664-227.549867c0-32.469333-26.5728-59.042133-59.042133-59.042133H279.466667c-32.469333 0-59.042133 26.564267-59.042134 59.042133V563.805867c0 32.469333 26.564267 59.042133 59.042134 59.042133h465.066666c32.469333 0 59.042133-26.564267 59.042134-59.042133v-359.611734z"  horiz-adv-x="1024" />

    
    <glyph glyph-name="_8" unicode="&#58904;" d="M708.061867 335.240533c-80.3072 0.0768-145.476267-64.964267-145.553067-145.271466-0.0768-80.3072 64.964267-145.476267 145.271467-145.553067 80.3072-0.0768 145.476267 64.964267 145.553066 145.271467 0.0768 80.3072-64.964267 145.476267-145.271466 145.553066z m79.8976-159.5904l-65.954134 0.068267-0.068266-65.954133a14.1056 14.1056 0 0 0-28.202667 0.034133l0.068267 65.954133-65.954134 0.068267a14.097067 14.097067 0 0 0 0.0256 28.194133l65.954134-0.068266 0.068266 65.954133a14.097067 14.097067 0 1 0 28.194134-0.034133l-0.068267-65.954134 65.954133-0.068266a14.1056 14.1056 0 0 0-0.017066-28.194134zM561.006933 447.505067c44.270933-21.077333 82.833067-53.888 112.682667-94.779734a167.278933 167.278933 0 0 0 34.0736 3.473067c55.867733-0.0512 105.2416-27.648 135.3984-69.896533C818.056533 376.951467 750.08 446.941867 665.284267 467.4048c42.154667 21.0432 70.391467 67.2768 70.4512 121.6768 0.068267 74.129067-54.2976 134.280533-121.4464 134.3488-21.828267 0.017067-42.2912-6.3488-60.014934-17.450667 31.4624-33.749333 50.986667-80.981333 50.935467-133.239466-0.034133-48.298667-16.785067-92.2624-44.202667-125.2352zM641.527467 342.536533c-37.154133 46.0544-87.031467 79.3344-143.598934 92.987734 47.428267 23.68 79.2064 75.6992 79.266134 136.900266 0.085333 83.413333-61.098667 151.0912-136.644267 151.159467-75.554133 0.0768-136.866133-67.490133-136.942933-150.894933-0.059733-61.380267 31.709867-113.544533 79.3088-137.216C266.683733 406.877867 178.244267 293.128533 170.666667 158.592l373.418666-0.093867a167.364267 167.364267 0 0 0-2.961066 31.368534c0.068267 68.411733 41.3952 127.112533 100.4032 152.669866z"  horiz-adv-x="1024" />

    
    <glyph glyph-name="_9" unicode="&#58905;" d="M851.720533 551.9104v48.904533c0 35.8656-29.047467 65.211733-64.554666 65.211734H235.221333c-35.498667 0-64.554667-29.346133-64.554666-65.211734v-48.904533h681.053866zM170.666667 470.4v-303.214933c0-35.8656 29.047467-65.211733 64.554666-65.211734h553.557334c35.5072 0 64.554667 29.346133 64.554666 65.211734V470.4H170.666667z m217.873066-238.011733H228.7616v32.605866h159.778133v-32.605866zM520.874667 335.095467H228.7616V367.701333H520.874667v-32.605866z m0 0"  horiz-adv-x="1024" />

    
    <glyph glyph-name="_10" unicode="&#58906;" d="M590.609067 393.668267L493.192533 296.251733l-58.4448 58.453334s-9.745067 9.736533-19.4816 0c-9.745067-9.745067 0-19.4816 0-19.4816l64.290134-64.290134c7.1424-7.1424 20.130133-7.1424 27.272533 0l103.261867 103.253334s9.736533 9.736533 0 19.4816c-9.745067 9.745067-19.4816 0-19.4816 0zM358.254933 578.8672a30.634667 30.634667 0 0 1 30.5408 30.5408V691.882667c0 16.7936-13.738667 30.5408-30.5408 30.5408s-30.5408-13.7472-30.5408-30.5408v-82.474667a30.634667 30.634667 0 0 1 30.5408-30.5408zM793.659733 659.899733h-71.4752v-56.1152c0-27.537067-22.528-50.056533-50.056533-50.056533h-9.9584c-27.537067 0-50.056533 22.528-50.056533 50.056533v56.1152H411.895467v-56.1152c0-27.537067-22.528-50.056533-50.056534-50.056533h-9.9584c-27.537067 0-50.056533 22.528-50.056533 50.056533v56.1152h-71.4752c-32.8192 0-59.6736-26.8544-59.6736-59.6736v-494.984533c0-32.8192 26.8544-59.6736 59.6736-59.6736h563.319467c32.8192 0 59.6736 26.8544 59.6736 59.6736V600.234667c-0.008533 32.8192-26.862933 59.665067-59.682134 59.665066zM514.0736 179.3536a155.485867 155.485867 0 0 0-155.861333 155.861333 155.485867 155.485867 0 0 0 155.861333 155.861334 155.485867 155.485867 0 0 0 155.861333-155.861334 155.4944 155.4944 0 0 0-155.861333-155.861333zM668.535467 578.8672a30.634667 30.634667 0 0 1 30.5408 30.5408V691.882667c0 16.7936-13.738667 30.5408-30.5408 30.5408s-30.5408-13.7472-30.5408-30.5408v-82.474667a30.634667 30.634667 0 0 1 30.5408-30.5408z"  horiz-adv-x="1024" />

    
    <glyph glyph-name="_11" unicode="&#58907;" d="M732.859733 671.735467c0 29.602133-28.296533 53.597867-57.873066 53.597866H296.3456c-29.576533 0-57.873067-23.9872-57.873067-53.597866v-513.467734c0-29.602133 28.296533-57.924267 57.873067-57.924266h77.7472l358.766933 358.980266V671.735467zM486.237867 336.5376H342.5536v32.0768H486.229333v-32.0768z m73.3952 76.305067H342.5536v32.0768h217.079467v-32.0768z m70.280533 76.296533H342.5536V521.216h287.36v-32.0768z m0 76.305067H342.5536v32.0768h287.36v-32.0768z m4.9152-101.1712h-1.2288l1.220267 7.552v-7.552zM574.941867 240.315733a3014.980267 3014.980267 0 0 1-30.609067-31.061333 2249.710933 2249.710933 0 0 0-28.0576-28.4416l-21.239467-21.316267-10.9568-11.076266a67.191467 67.191467 0 0 1-13.687466-19.4304c-1.032533-2.372267-2.6112-6.519467-4.6848-12.8512l-6.331734-19.976534c-2.2528-6.997333-4.258133-13.943467-5.9648-20.829866-1.706667-6.7584-2.858667-11.8784-3.4048-15.223467-1.1008-6.749867-0.546133-11.630933 1.706667-14.4896 2.312533-2.7392 6.877867-3.592533 13.627733-2.491733 3.413333 0.4864 8.5248 1.706667 15.274667 3.473066a262.1696 262.1696 0 0 1 21.239467 5.9648c7.304533 2.133333 14.549333 4.625067 21.725866 7.185067 7.057067 2.551467 12.296533 4.625067 15.701334 6.391467 3.464533 1.706667 6.749867 3.84 10.222933 6.340266 3.345067 2.619733 6.4512 4.992 9.309867 7.2448 0.546133 0.546133 3.524267 3.652267 8.891733 9.250134a883.456 883.456 0 0 0 19.899733 20.462933l28.0576 28.074667 30.549334 30.5664 82.4064 82.4576-71.3216 71.364266a12891.972267 12891.972267 0 0 1-82.3552-81.5872zM782.0544 334.5152c-3.413333 7.978667-8.3968 15.470933-14.967467 22.528-6.570667 7.125333-12.5952 11.997867-18.2528 14.856533-5.111467 2.858667-11.5712 4.625067-19.541333 5.486934-7.9104 0.913067-15.3344-1.7664-22.024533-7.978667-2.858667-2.372267-6.391467-5.4784-10.6496-9.378133a283.989333 283.989333 0 0 0-11.4432-10.222934l72.174933-71.364266c1.7664 1.211733 3.771733 2.858667 5.9648 5.12 1.7664 1.757867 3.771733 3.7632 5.9648 6.391466 2.312533 2.500267 4.864 5.239467 7.662933 7.978667 6.272 6.272 9.0624 12.8512 8.5248 19.6096-0.6144 6.749867-1.774933 12.475733-3.413333 16.9728z"  horiz-adv-x="1024" />

    
    <glyph glyph-name="_12" unicode="&#58908;" d="M851.720533 600.823467c0 35.8656-29.047467 65.211733-64.554666 65.211733H235.221333c-35.498667 0-64.554667-29.346133-64.554666-65.211733v-48.904534h681.053866v48.904534zM568.157867 322.901333l-56.413867-67.8144-56.610133 68.010667h-29.090134v-11.008a9.813333 9.813333 0 0 0 9.233067-3.933867v-1.1776c12.381867-15.9232 61.124267-71.3472 74.888533-88.448 13.755733 17.297067 62.3104 72.721067 74.888534 88.840534 2.1248 2.901333 5.666133 4.411733 9.2416 3.933866v12.578134H566.784s2.158933 0 1.373867-0.981334zM170.666667 470.4v-303.214933c0-35.8656 29.047467-65.211733 64.554666-65.211734h553.557334c35.5072 0 64.554667 29.346133 64.554666 65.211734V470.4H170.666667z m480.4352-173.448533l-67.618134-73.514667-49.92-53.853867a27.323733 27.323733 0 0 0-21.623466-11.008 27.511467 27.511467 0 0 0-21.623467 11.008l-48.349867 52.087467-69.384533 75.0848a32.2304 32.2304 0 0 0 0 42.257067l32.034133 35.575466 26.538667 28.893867a28.1088 28.1088 0 0 0 22.016 10.811733h117.930667a29.056 29.056 0 0 0 21.2224-10.615466c11.008-11.008 34.7904-37.341867 49.134933-52.872534l9.634133-11.008a33.194667 33.194667 0 0 0 0.008534-42.845866z"  horiz-adv-x="1024" />

    
    <glyph glyph-name="_13" unicode="&#58909;" d="M492.893867 354.568533c4.258133 1.92 6.775467 5.418667 6.971733 10.231467 0.093867 2.312533-0.170667 4.6336-0.273067 6.954667-6.715733 8.6528-13.4656 17.288533-20.130133 25.984-1.169067 1.527467-3.157333 3.037867-2.065067 5.290666 1.134933 2.346667 3.575467 1.245867 5.435734 1.3312 4.864 0.2304 9.8816-0.520533 13.986133 3.592534 3.089067-12.458667-2.9184-25.173333 4.8128-36.078934 3.7632-1.8432 7.765333-2.0224 11.869867-2.013866 20.923733 0.068267 41.838933 0.0256 62.762666 0.0256 13.056 0 16.469333 3.2256 16.571734 16.477866 0.145067 19.464533 0.085333 38.9376 0.0256 58.402134-0.042667 16.426667-4.309333 20.7616-20.539734 20.829866-17.723733 0.068267-35.447467 0.0256-53.179733 0.017067-8.32 0-17.0496 1.169067-22.075733-9.7536-2.193067 13.320533-6.698667 16.725333-17.570134 15.0784-8.32-1.262933-16.605867-2.747733-24.925866-3.933867-7.159467-1.024-14.498133-1.134933-21.486934-2.807466-6.826667-1.629867-9.847467-7.057067-8.738133-14.0288 1.032533-6.468267 6.152533-7.876267 11.7248-8.064 3.191467-0.110933 6.536533-0.443733 9.5488 0.349866 5.981867 1.570133 7.236267-0.5632 7.389867-6.2976 0.170667-6.408533-1.518933-9.216-8.2432-8.2944-3.131733 0.426667-6.4 0.213333-9.565867-0.093866-7.517867-0.725333-11.383467-5.316267-11.136-12.8256 0.256-7.688533 4.48-10.845867 11.8528-10.589867 2.901333 0.1024 5.8368-0.238933 8.712533 0.0512 5.5552 0.5632 6.1696-1.476267 4.6592-6.459733a246.818133 246.818133 0 0 0-23.594666-54.109867c-3.2512-5.504-4.078933-11.281067 2.141866-15.3344 6.280533-4.087467 12.330667-2.858667 16.9984 2.944 2.602667 3.242667 4.514133 7.04 7.995734 12.612267 0-13.2608 0.017067-24.192-0.008534-35.1232-0.008533-6.792533 3.089067-11.050667 9.9584-12.074667 8.490667-1.271467 13.969067 3.805867 14.045867 13.320533 0.136533 16.452267 0.034133 32.896 0.034133 51.618134 5.213867-5.947733 9.608533-10.120533 16.034134-7.227734zM523.861333 440.149333c4.6592 4.5568 14.378667 1.297067 21.853867 1.348267 22.570667 0.162133 22.570667 0.059733 22.570667-22.519467 0-6.391467-0.196267-12.782933 0.0512-19.165866 0.170667-4.445867-1.3824-6.229333-5.981867-6.135467a930.3296 930.3296 0 0 1-34.850133 0c-4.224-0.0768-5.5808 1.518933-5.418667 5.589333 0.247467 6.0928 0.059733 12.194133 0.059733 19.694934 0.8192 6.306133-3.3792 16.2048 1.7152 21.188266z m-46.429866 5.4016c0.1792 1.937067 2.935467 1.186133 4.497066 1.6128 5.333333 1.467733 10.743467 2.696533 15.752534 7.3216v-30.446933c-4.2752 2.176-7.7056 4.096-11.997867 4.010667-2.8416-0.059733-7.466667-1.937067-8.285867 2.013866-1.032533 4.9664-0.443733 10.350933 0.034134 15.488zM530.3552 366.199467c-5.8112 2.048-11.272533 0.631467-14.4896-4.753067-9.685333-16.221867-20.0192-31.906133-33.0752-45.704533-3.447467-3.643733-3.822933-8.516267-0.7424-12.859734 3.310933-4.667733 8.021333-6.596267 13.6704-5.341866 3.7632 0.836267 6.8352 3.003733 9.437867 5.896533 11.869867 13.201067 22.5024 27.2896 31.0272 42.9056 1.365333 2.5088 2.218667 5.2992 3.080533 7.424-0.469333 6.528-3.584 10.555733-8.9088 12.433067zM574.020267 361.130667c-3.114667 4.155733-7.1424 6.656-12.2368 7.278933-5.102933-0.273067-8.925867-2.6112-11.6736-6.698667-2.944-4.369067-1.143467-8.234667 1.390933-12.040533 8.9856-13.508267 18.048-26.973867 26.845867-40.6016 3.959467-6.135467 8.6528-9.506133 15.8464-5.751467 6.519467 3.4048 8.388267 9.838933 4.8384 17.143467a251.392 251.392 0 0 1-25.0112 40.669867zM853.333333 431.744V595.3536c0 35.729067-27.6992 64.989867-61.559466 64.989867H232.226133c-33.860267 0-61.559467-29.252267-61.559466-64.989867v-163.6864c26.5216-3.584 46.1824-17.399467 46.1824-47.6672S197.188267 339.9936 170.666667 336.3328v-163.6864c0-35.729067 27.6992-64.989867 61.559466-64.989867h559.470934c33.860267 0 61.559467 29.252267 61.559466 64.989867V336.4096c-26.5216 3.592533-46.1824 17.399467-46.1824 47.6672 0.068267 30.276267 19.729067 44.0064 46.2592 47.6672zM348.9024 384c0 90.077867 73.019733 163.0976 163.0976 163.0976S675.0976 474.077867 675.0976 384 602.077867 220.9024 512 220.9024 348.9024 293.922133 348.9024 384z m285.371733-161.450667a9.5744 9.5744 0 0 0-13.3376 2.6112 9.7792 9.7792 0 0 0 2.577067 13.4912 178.048 178.048 0 0 1 77.687467 147.4816c-0.1792 98.2528-78.882133 177.698133-176.187734 177.8944-2.3296 0-4.642133-0.059733-6.9632-0.145066v-0.017067a9.668267 9.668267 0 0 0-9.975466 9.335467 9.6512 9.6512 0 0 0 9.2416 10.0608c2.551467 0.093867 5.111467 0.1536 7.697066 0.1536 107.938133 0 195.413333-88.328533 195.421867-197.290667A197.674667 197.674667 0 0 0 634.274133 222.549333z"  horiz-adv-x="1024" />

    
    <glyph glyph-name="_14" unicode="&#58910;" d="M734.813867 277.930667c-9.864533 6.946133-49.809067 10.325333-64.776534-2.005334-14.8736-12.424533-28.0064-30.2848-31.633066-34.167466-3.626667-3.925333-15.701333-18.4064-49.0752-10.914134-33.3312 7.6288-129.373867 106.8288-143.880534 121.582934-14.549333 14.702933-88.328533 94.3616-89.796266 114.773333-1.5616 20.369067 0.64 30.916267 11.1104 38.178133 10.4704 7.3984 19.473067 18.312533 32.093866 30.2336 12.672 11.921067 20.48 37.179733 4.087467 76.458667-16.4864 39.278933-64.042667 80.836267-74.9312 86.596267-10.922667 5.845333-26.308267 24.430933-68.770133 0-42.555733-24.3968-56.925867-42.752-64.776534-64.401067-7.850667-21.649067-20.983467-44.757333 0-108.791467 21.026133-63.854933 72.3968-181.367467 171.7504-275.6864 98.065067-93.0816 204.117333-160.810667 243.140267-173.192533 39.022933-12.330667 124.962133-39.005867 167.936 0 42.692267 38.690133 42.052267 43.1104 50.961067 52.343467 8.900267 9.088 20.6592 55.8592-5.1456 86.775466-25.8048 31.061333-78.421333 55.2704-88.2944 62.216534zM563.8912 445.730133c3.874133-4.360533 6.229333-9.0112 7.074133-13.9776 0.8448-4.957867-1.152-8.772267-5.9904-11.434666-9.198933-4.8384-20.206933-8.3456-33.032533-10.530134-2.423467-0.4864 2.4832-2.6624 14.702933-6.536533 12.219733-3.874133 30.916267-7.0144 56.081067-9.437867a389.1712 389.1712 0 0 1 55.355733-2.176 424.2176 424.2176 0 0 1 20.1472 1.092267 311.739733 311.739733 0 0 1 17.058134 1.8176c20.565333 2.176 39.748267 7.867733 57.531733 17.058133a168.968533 168.968533 0 0 1 46.464 35.029334 156.330667 156.330667 0 0 1 30.856533 48.8192c7.381333 18.389333 10.948267 37.9904 10.709334 58.8032-0.238933 22.016-4.599467 42.6496-13.064534 61.892266-8.465067 19.242667-20.027733 35.933867-34.6624 50.090667-14.6432 14.1568-31.6416 25.352533-51.003733 33.578667s-40.046933 12.219733-62.071467 11.9808c-22.024533-0.238933-42.709333-4.599467-62.071466-13.064534-19.362133-8.465067-36.181333-19.959467-50.4576-34.4832-14.276267-14.5152-25.531733-31.4624-33.757867-50.816-8.226133-19.362133-12.219733-40.046933-11.9808-62.071466 0.4864-20.8128 4.539733-40.234667 12.16-58.257067 7.6288-18.030933 17.6128-33.8176 29.952-47.377067zM757.367467 568.064a21.751467 21.751467 0 0 0 15.9744 6.536533c6.289067 0 11.6736-2.176 16.1536-6.536533a21.418667 21.418667 0 0 0 6.715733-15.9744c0-6.289067-2.244267-11.6736-6.715733-16.1536a22.016 22.016 0 0 0-16.1536-6.715733 21.469867 21.469867 0 0 0-15.9744 6.715733 22.357333 22.357333 0 0 0-6.536534 16.1536c0 6.289067 2.184533 11.613867 6.536534 15.9744z m-90.752 0.5376a22.613333 22.613333 0 0 0 16.3328 6.715733c6.528 0 12.040533-2.235733 16.512-6.715733 4.48-4.48 6.715733-9.984 6.715733-16.512a22.613333 22.613333 0 0 0-6.715733-16.3328c-4.48-4.599467-9.984-6.894933-16.512-6.894933-6.2976 0-11.733333 2.295467-16.3328 6.894933-4.599467 4.599467-6.894933 10.043733-6.894934 16.3328 0 6.536533 2.304 12.040533 6.894934 16.512z m-90.197334 0a22.016 22.016 0 0 0 16.1536 6.715733c6.536533 0 12.040533-2.235733 16.512-6.715733a22.016 22.016 0 0 0 6.715734-16.1536 22.613333 22.613333 0 0 0-6.715734-16.3328c-4.48-4.599467-9.984-6.894933-16.512-6.894933-6.289067 0-11.6736 2.295467-16.1536 6.894933a22.613333 22.613333 0 0 0-6.715733 16.3328c0 6.2976 2.235733 11.682133 6.715733 16.1536z"  horiz-adv-x="1024" />

    
    <glyph glyph-name="_" unicode="&#58911;" d="M426.564267 665.6h170.862933a25.821867 25.821867 0 0 1 25.745067 25.745067v5.76a25.821867 25.821867 0 0 1-25.745067 25.745066H426.564267a25.821867 25.821867 0 0 1-25.745067-25.745066v-5.76A25.821867 25.821867 0 0 1 426.564267 665.6zM794.120533 702.114133H644.4288v-1.0496a48.725333 48.725333 0 0 0-18.688-38.280533h130.0992c32.5632 0 59.2128-26.641067 59.2128-59.204267V136.533333c0-32.5632-26.641067-59.2128-59.2128-59.2128H267.9296c-32.5632 0-59.2128 26.641067-59.2128 59.2128V603.5712c0 32.5632 26.641067 59.204267 59.2128 59.204267h130.542933a48.725333 48.725333 0 0 0-18.688 38.280533v1.0496H229.879467c-32.5632 0-59.2128-26.641067-59.2128-59.204267v-538.555733c0-32.5632 26.641067-59.2128 59.2128-59.2128h564.2496c32.5632 0 59.2128 26.641067 59.2128 59.2128V642.901333c-0.008533 32.571733-26.6496 59.2128-59.221334 59.2128zM228.437333 585.301333v-430.506666c0-32.5632 26.641067-59.204267 59.204267-59.204267h448.477867c32.5632 0 59.2128 26.641067 59.2128 59.204267V585.301333c0 32.5632-26.641067 59.2128-59.2128 59.2128H287.650133c-32.571733-0.008533-59.2128-26.6496-59.2128-59.2128z m283.4432-325.819733c-72.669867 0-131.5584 58.897067-131.5584 131.5584 0 72.669867 58.897067 131.5584 131.5584 131.5584 72.644267 0 131.5584-58.897067 131.5584-131.5584 0.008533-72.669867-58.914133-131.5584-131.5584-131.5584z m0.059734 343.765333c117.1968 0 212.206933-95.010133 212.206933-212.206933 0-34.696533-8.379733-67.413333-23.1424-96.324267l-17.885867 9.847467a190.907733 190.907733 0 0 1 20.616534 86.485333c0 105.924267-85.870933 191.803733-191.803734 191.803734S320.145067 496.964267 320.145067 391.04c0-94.267733 68.027733-172.5952 157.653333-188.706133l9.7024 40.200533 72.4736-68.932267-95.931733-28.296533 8.96 37.154133C374.417067 200.7552 299.741867 287.146667 299.741867 391.04c-0.008533 117.1968 95.0016 212.206933 212.1984 212.206933zM557.661867 467.140267L512 421.4784l-45.661867 45.661867h-30.446933l62.3104-61.056-47.104 0.1792v-15.2064h45.687467v-30.455467h-45.687467v-15.2064h45.661867v-30.455467h30.455466v30.455467h45.661867v15.2064h-45.661867v30.455467h45.636267v15.2064l-41.787733-0.1792 57.045333 61.056z"  horiz-adv-x="1024" />

    
    <glyph glyph-name="jiantou_xiangyouliangci" unicode="&#60169;" d="M550.4 405.333333L230.4 725.333333 170.666667 665.6l260.266666-260.266667L170.666667 145.066667 230.4 85.333333l320 320z m298.666667 0L533.333333 725.333333 469.333333 665.6l260.266667-260.266667-260.266667-260.266666 59.733334-59.733334 320 320z"  horiz-adv-x="1024" />

    
    <glyph glyph-name="tishi1" unicode="&#58913;" d="M512 764.568c-210.264 0-380.568-170.424-380.568-380.568 0-78.88 24.008-152.088 65.032-212.768C264.792 69.92 380.616 3.432 512 3.432c210.264 0 380.568 170.432 380.568 380.568S722.264 764.568 512 764.568zM566.368 152c0-22.048-24.44-39.832-54.36-39.832-15.04 0-28.728 4.512-38.464 11.648-9.752 7.264-15.904 17.16-15.904 28.184v29.072c0 22.048 24.456 39.832 54.368 39.832 30.088 0 54.36-17.912 54.36-39.832V152z m0 343.28v-181.464c0-21.336-24.44-38.552-54.36-38.552-15.04 0-28.728 4.368-38.464 11.28-9.752 7.032-15.904 16.608-15.904 27.272V562.92c0 21.328 24.456 38.544 54.368 38.544 30.088 0 54.36-17.328 54.36-38.544v-67.64z"  horiz-adv-x="1024" />

    
    <glyph glyph-name="weixinyanzheng" unicode="&#58914;" d="M694.624 698.504A31.704 31.704 0 0 1 672 708H352a31.704 31.704 0 0 1-22.624-9.496A32.496 32.496 0 0 1 320 675.6v-583.192c0-8.296 3.136-16.592 9.376-22.912S343.808 60 352 60h320a31.72 31.72 0 0 1 22.624 9.496A32.528 32.528 0 0 1 704 92.408V675.6a32.496 32.496 0 0 1-9.376 22.904zM512 81.608c-17.664 0-32 14.512-32 32.4 0 17.88 14.336 32.4 32 32.4s32-14.512 32-32.4c0-17.88-14.336-32.4-32-32.4zM352 157.2h320V643.2H352v-486zM632 357.784c0 35.624-36.424 64.88-78.048 64.88-42.928 0-78.048-29.256-78.048-64.88 0-35.616 33.816-64.88 78.048-64.88 9.112 0 18.216 2.544 27.32 5.088l24.72-13.992-6.504 22.896C617.696 320.896 632 338.704 632 357.784m-102.76 11.456c-5.2 0-9.104 3.816-9.104 8.904 0 3.816 5.2 8.904 9.104 8.904 6.504 0 11.712-3.816 11.712-8.904-0.008-3.816-5.208-8.904-11.712-8.904m49.432 0c-3.896 0-9.104 3.816-9.104 8.904 0 3.816 5.2 8.904 9.104 8.904 6.504 0 11.712-3.816 11.712-8.904 0-3.816-3.912-8.904-11.712-8.904M464.632 492C415.256 492 376 458.712 376 415.176c0-24.328 13.928-44.808 35.448-60.176l-8.856-26.88 31.656 15.368c11.392-2.56 20.256-5.12 31.656-5.12h8.864c-1.264 6.4-2.528 12.8-2.528 19.2 0 39.688 32.92 71.704 75.968 71.704h8.864c-10.136 35.84-48.12 62.728-92.44 62.728m-27.856-60.176c-6.328 0-13.928 3.848-13.928 11.528 0 6.408 6.336 11.528 13.928 11.528 6.328 0 11.4-3.848 11.4-11.528-1.264-7.68-5.064-11.528-11.4-11.528m62.048 0c-6.328 0-13.928 3.848-13.928 11.528 0 6.408 6.328 11.528 13.928 11.528 6.328 0 11.4-3.848 11.4-11.528-0.008-7.68-5.072-11.528-11.4-11.528"  horiz-adv-x="1024" />

    
    <glyph glyph-name="tongguo" unicode="&#58915;" d="M875.56 700.28H148.872c-37.544 0-68.184-31.192-68.184-69.408v-493.744c0-38.216 30.64-69.408 68.184-69.408h726.256c37.544 0 68.176 31.192 68.176 69.408V630.872c0.432 38.216-30.208 69.408-67.744 69.408zM536.384 217.512c0-18.448-14.672-33.384-32.8-33.384H215.328c-18.12 0-32.8 14.936-32.8 33.384V537.744c0 18.448 14.672 33.384 32.8 33.384h288.256c18.12 0 32.8-14.936 32.8-33.384v-320.232zM875.56 700.28H148.872c-37.544 0-68.184-31.192-68.184-69.408v-493.744c0-38.216 30.64-69.408 68.184-69.408h726.256c37.544 0 68.176 31.192 68.176 69.408V630.872c0.432 38.216-30.208 69.408-67.744 69.408z m50.488-563.152c0-28.552-22.872-51.4-50.488-51.4H148.872c-28.048 0-50.488 23.28-50.488 51.4V630.872c0 28.552 22.44 51.4 50.488 51.4h726.256c28.048 0 50.488-23.288 50.488-51.4v-493.744h0.432zM502.6 568.8H215.68c-18.04 0-32.648-14.848-32.648-33.192v-318.392c0-18.344 14.608-33.192 32.648-33.192h286.92c18.04 0 32.648 14.848 32.648 33.192V535.608c0 18.344-14.608 33.192-32.648 33.192z m14.608-351.584c0-6.112-3.44-10.92-8.592-13.536-12.024 51.536-82.896 71.632-100.504 75.992-0.856 6.992-0.432 19.216 0.432 27.512 10.304 13.104 13.744 34.504 14.6 43.24 3.44 3.056 6.872 10.048 10.304 21.84 3.44 10.92 3.008 19.656-0.424 25.768-0.864 1.304-1.72 2.616-2.584 3.056 7.304 27.08 5.584 48.912-5.152 65.512-13.32 20.528-36.08 26.208-48.536 27.512-27.064 3.496-50.256 20.528-50.688 20.96-1.712 1.312-4.296 1.752-6.016 0.44a5.68 5.68 0 0 1-3.44-5.24l-0.432-23.152c-18.896-9.168-43.808-31.44-29.64-86.472-0.856-0.872-1.72-1.752-2.576-3.056-3.44-6.112-3.44-14.416-0.432-25.768 3.44-11.792 6.44-18.784 10.312-21.84 0.856-8.736 4.72-30.136 14.6-43.24 0.856-7.856 1.288-20.088 0.432-27.512-17.608-4.368-88.48-24.456-100.512-75.992-4.72 2.616-8.592 7.424-8.592 13.544V535.608c0 8.296 6.44 14.848 14.6 14.848h288.208c8.16 0 14.608-6.552 14.608-14.848v-318.392z m97.928 292.184h120.264v24.024H615.136v-24.024z m0-72.496h219.056v24.024H615.136v-24.024z m0-117.048h51.112v24.024h-51.112v-24.024z m79.896 0h68.72v24.024h-68.72v-24.024z m-79.896-72.504h219.056v24.024H615.136v-24.024z"  horiz-adv-x="1024" />

    
    <glyph glyph-name="weitongguo" unicode="&#58916;" d="M875.56 700.28H148.872c-37.544 0-68.184-31.192-68.184-69.408v-493.744c0-38.216 30.64-69.408 68.184-69.408h726.256c37.544 0 68.176 31.192 68.176 69.408V630.872c0.432 38.216-30.208 69.408-67.744 69.408zM536.384 217.512c0-18.448-14.672-33.384-32.8-33.384H215.328c-18.12 0-32.8 14.936-32.8 33.384V537.744c0 18.448 14.672 33.384 32.8 33.384h288.256c18.12 0 32.8-14.936 32.8-33.384v-320.232zM875.56 700.28H148.872c-37.544 0-68.184-31.192-68.184-69.408v-493.744c0-38.216 30.64-69.408 68.184-69.408h726.256c37.544 0 68.176 31.192 68.176 69.408V630.872c0.432 38.216-30.208 69.408-67.744 69.408z m50.488-563.152c0-28.552-22.872-51.4-50.488-51.4H148.872c-28.048 0-50.488 23.28-50.488 51.4V630.872c0 28.552 22.44 51.4 50.488 51.4h726.256c28.048 0 50.488-23.288 50.488-51.4v-493.744h0.432zM502.6 568.8H215.68c-18.04 0-32.648-14.848-32.648-33.192v-318.392c0-18.344 14.608-33.192 32.648-33.192h286.92c18.04 0 32.648 14.848 32.648 33.192V535.608c0 18.344-14.608 33.192-32.648 33.192z m14.608-351.584c0-6.112-3.44-10.92-8.592-13.536-12.024 51.536-82.896 71.632-100.504 75.992-0.856 6.992-0.432 19.216 0.432 27.512 10.304 13.104 13.744 34.504 14.6 43.24 3.44 3.056 6.872 10.048 10.304 21.84 3.44 10.92 3.008 19.656-0.424 25.768-0.864 1.304-1.72 2.616-2.584 3.056 7.304 27.08 5.584 48.912-5.152 65.512-13.32 20.528-36.08 26.208-48.536 27.512-27.064 3.496-50.256 20.528-50.688 20.96-1.712 1.312-4.296 1.752-6.016 0.44a5.68 5.68 0 0 1-3.44-5.24l-0.432-23.152c-18.896-9.168-43.808-31.44-29.64-86.472-0.856-0.872-1.72-1.752-2.576-3.056-3.44-6.112-3.44-14.416-0.432-25.768 3.44-11.792 6.44-18.784 10.312-21.84 0.856-8.736 4.72-30.136 14.6-43.24 0.856-7.856 1.288-20.088 0.432-27.512-17.608-4.368-88.48-24.456-100.512-75.992-4.72 2.616-8.592 7.424-8.592 13.544V535.608c0 8.296 6.44 14.848 14.6 14.848h288.208c8.16 0 14.608-6.552 14.608-14.848v-318.392z m97.928 292.184h120.264v24.024H615.136v-24.024z m0-72.496h219.056v24.024H615.136v-24.024z m0-117.048h51.112v24.024h-51.112v-24.024z m79.896 0h68.72v24.024h-68.72v-24.024z m-79.896-72.504h219.056v24.024H615.136v-24.024zM748.496 135.84m-188.32 0a188.32 188.32 0 1 1 376.64 0 188.32 188.32 0 1 1-376.64 0ZM638.496 155.84h220v-40h-220z"  horiz-adv-x="1024" />

    


  </font>
</defs>
</svg>
